<mxfile host="app.diagrams.net" modified="2022-05-02T19:20:58.887Z" agent="5.0 (Windows NT 10.0; WOW64) AppleWebKit/537.36 (KHTML, like Gecko) Chrome/100.0.4896.127 Safari/537.36" etag="KujNs8S_xNl6Uo0ijWAZ" version="16.4.5" type="github">
  <diagram id="6zsNcTkabCAZfi7xyR_b" name="Page-1">
    <mxGraphModel dx="1409" dy="794" grid="1" gridSize="10" guides="1" tooltips="1" connect="1" arrows="1" fold="1" page="1" pageScale="1" pageWidth="850" pageHeight="1100" math="0" shadow="0">
      <root>
        <mxCell id="0" />
        <mxCell id="1" parent="0" />
        <mxCell id="PfBwh1k9COEDhM3cSzjw-1" value="PCF echo system" style="fillColor=none;strokeColor=#009900;dashed=1;verticalAlign=top;fontStyle=1;fontColor=#147EBA;" parent="1" vertex="1">
          <mxGeometry x="50" y="40" width="280" height="140" as="geometry" />
        </mxCell>
        <mxCell id="PfBwh1k9COEDhM3cSzjw-4" value="OpsMan" style="rounded=1;whiteSpace=wrap;html=1;fillColor=#dae8fc;strokeColor=#6c8ebf;" parent="1" vertex="1">
          <mxGeometry x="60" y="75" width="80" height="45" as="geometry" />
        </mxCell>
        <mxCell id="PfBwh1k9COEDhM3cSzjw-5" value="Bosh-D" style="rounded=1;whiteSpace=wrap;html=1;fillColor=#d5e8d4;strokeColor=#82b366;" parent="1" vertex="1">
          <mxGeometry x="150" y="75" width="80" height="45" as="geometry" />
        </mxCell>
        <mxCell id="PfBwh1k9COEDhM3cSzjw-6" value="TAS" style="rounded=1;whiteSpace=wrap;html=1;fillColor=#ffe6cc;strokeColor=#d79b00;" parent="1" vertex="1">
          <mxGeometry x="240" y="75" width="80" height="45" as="geometry" />
        </mxCell>
        <mxCell id="PfBwh1k9COEDhM3cSzjw-10" value="myvault.dell.com" style="fillColor=none;strokeColor=#3333FF;dashed=1;verticalAlign=top;fontStyle=1;fontColor=#FF8000;" parent="1" vertex="1">
          <mxGeometry x="360" y="40" width="200" height="140" as="geometry" />
        </mxCell>
        <mxCell id="PfBwh1k9COEDhM3cSzjw-11" value="" style="shape=image;verticalLabelPosition=bottom;labelBackgroundColor=default;verticalAlign=top;aspect=fixed;imageAspect=0;image=data:image/png,iVBORw0KGgoAAAANSUhEUgAAB2AAAAFtCAYAAADRSnrRAAAgAElEQVR4nOzde1RVdf7/8ReICpoCmiieVDB0BCnGa4JmyVfUDPU7msNkoeZlUqpfNdhUWqmZVCZdlg1ZZlk0Fvm1KT1pk47mjTN5DUVglIS0E4py0xRjDH9/nAvncFeP4eX5WIu1ZO/P/uzP3hxtrV683x83t3s+PC9c8c53DGzoJQAAAAAAAAAAgMvI7XBOQy8BgAu4N/QCAAAAAAAAAAAAAOBaQQALAAAAAAAAAAAAAC5CAAsAAAAAAAAAAAAALkIACwAAAAAAAAAAAAAuQgALAAAAAAAAAAAAAC5CAAsAAAAAAAAAAAAALuLR0AsAAAAAAAAAAADAFSBupMoHSUvHrtJUF0675PVYTTY4H8vcmKzuSS68yUVa8nqsJitb7o+ZGnopuIYQwAIAAAAAAAAAAFyXwrV/RZB0ucLQ6CgVTmgnH3O23MeaKh2PVXnfo3pi4jolXoZbAw2JFsQAAAAAAAAAAABwLWv4mrcxuWp1qXGdWo3dpQ1qp1mzQxpmfVZTH6tmfcAlogIWAAAAAAAAAADgahIdpcIJrbQ7vVSRod6SpOL0XZqvW/RKaBP7963mZlRtK2y79oN90j1BCpakQbHar2R1t04fODtG5ZXmWfJ6rMYUWeeULPP2LdUTE9ep2+uxGqMSyeAtn9OWqtZugy2Vr62SVFEJa51vpW8vy1zbS1Q+KEhLlOGwNss4SZLZ1ho4ROuX9VLPnKPKC21nWfPpo3ri/6RZtvGnHatpLZW9wdZpKtodW+bxLy5RsMFbMmdrqYKcWhDHz46xv0OnOWtcm/VdDPK2nijThg9SNNh4CT9fXPWogAUAAAAAAAAAALjqNFGk73G5j02W+8YS+YT20iztk/vYZD2RXiaf0CAtqfX6DA2emK1MVd6P1Vs9rfNY5r1F66OlqQdK5BNoULx11JKu3irOMdvbB/sYpJVjk+U+cZ0SFa4IQ5k2rDc5BL7Jch+brJW+vTTZIOUdz5CSjitTXgqMlqQQrb/HWjE7NlnuHxxVsaGj1kdXrNgn1EupY5PlPjZbmc3b6ZV7pPm2sc3baVKcdZ5lQfJP32Wfx39QjNM8wT6lemJsNZWvcSP1Smiplo61rGFpcTu98np4HWsL1/5BXtpgfT73jaWKvCfK/p5wfSKABQAAAAAAAAAAuOpYA05JOlyqYpVp9y5LdWri8dJLmLdEK21VrodLVWw7nHRcmc1b6S5r6BhhqLifJMl83FLFKklxbRR8ulBrjdKSwe2k9H32itCp64+qWCVKtQe+TeTfUbIEwg5BcEevimpTq+L0bOs9SpR3WhUBsPFn5dkGRRvUs7nDMxjXaaW5iXr2qmh17BgcO1rS1dvpOSraE9e1tiaKHBxufU+rrCE0rme0IAYAAAAAAAAAAEAdTEo1B2lMrxBJN8j/dKHeq7PNbrgiDFLeAYegtqOXfE6XKst+oEx5hy1/WvJ6rCYbrIdPl1WEvxeio5d85K3JK2I12emEt6SSWi4MUaCPVJxT/Zia12ZS97HS/hVBKl8RZDnk2J4Y1yUCWAAAAAAAAAAAANRp6oESTe5r0BK1knL21bPKsyJglaxVpsXHlSgpfnZHBZsPq7tRUnSUxhgc9k+1ti6+YNaq3ZW2PW+dhFQdb5ehnOJeivT1rnqqzrWZ1H2syT62cEKQ9seZHNo643pDC2IAAAAAAAAAAIBr1eFSFctbEXGWb+N7tarS2rfeko4rs3k7TQ5tYtnDtTbNvdRNJqWaHdrzxo3UZIOUecBk3W9VFW2UJVW0I7a0Lr6odRrN2n3aW2Nm28LWcO1fEavC2bWFrxZTD5RIhjb2vXPjZ8eofJltP9ca1hYdpcIVDnvMGn9WXqXQGdcfKmABAAAAAAAAAACuVcZ1Wjk4VpMHxap8kFScflSZslVvWtoKTx4Uq8I2u9TqeF2TWcYHGxz3cK1G0nFlDgpSRJzU/bFsRdja85qztdTsbVmLSrR0bEpFlWqldWZuzFamIcgeetZfhgZP9Nb+Fb1UvqKX5ZA5W+5zM1R7BaykpFV6ok2MXrG3Ly7R0rGW/Vy71bS2pHVq1XGkyifEqnyCZZri9F2Wql5ct9zc7vnwvOMBew/r00f1RB2bBMfPjtEroU2cjmVuTK65pDpupMoHOZduF6fvUqu5Nf2WRIjWL+ulyOaOx0q0tJqyccu6qz9X7fnoKBVOaCefmp7Tel7W9Tn19q6J01zVrb2O91OL8x0DL/wiAAAAAAAAAABw1XA7nNPQS6hT/OwYveJ7uM49Ti0ZUmmNuY1FuPavCJJ/rVkRcPWpVAFr2Qy5+HSZfJq306Q4KbHasNDyFyK48m8nxI1U+aBYlXetvLmwLYws04YPki39sSVryNlL5csMVUNQW1hrzpb7xIq54mdbfvNgjKv+MjZvp1mzQ5RYx1xTH0t2+gdiyeuxmuxTU0htfT+V1l7z+wEAAAAAAAAAALjSheiuwCbK3F53xpE4N0WqJdOxFfllbkxWK/ZKxTXGOYCNa6NglWnD/x2W/4QgBXcNl1T5L1GI1i8LUnB1laNJq+SukSof5Ly58JLXeymyeTXVqcZ1aiVLpalTCBodpUJb+FopqEycm6LEuJEqH9RL++MyXLKBsU/oLVofnVERDF+i+NkdLeF05ZDVVroeaukfXvNvfAAAAAAAAAAAAFxBbJ1Fzdlyr2c2kzg3RYkKd24HbHP6qJ4YW3snVuBKNWv0LZp37+9rPO8QwIZofV9v6fRRrTWapF4dqw8K44IU2VzK3FjDX4qk41qqVco6HCIpQ4qO0hiDVJyeXX3gaDRrZUezshw2I7ZsAF1NgGm/R7Y29O2lyL5Rik+6tL+cxenZ2h0YpMh7ohRvdOVfdC8FRkuqFOpa/rEBAAAAAAAAAAC4ihjXqdVFFbKZ1H0sXUFxbZn/2T65uUnP/6n6ENbd/qdog3o2l4pzzEqUlLirUMXy1pjZzhsSx7fxklSmvMOqgUlTk6REo7WataOXfCTlHa+pxW+GpiZlVIy3lq/rdKmyanysDK3NKZOat9Jd0TUOqqcSDf6/oyq2tiJ2Bcu7a6LICbEqdNGcAAAAAAAAAAAAAK4ML6zcp+c++a7K8bkr9lYEsLaq05W2NsBGs3aflnwCDYp3uKibbxNJpcqp52851B3YVuYt/+aSin/+7SpFjes0P73M2orYNfO12lgiSfIJ7aXyFbHWr5Fa4oLpAQAAAAAAAAAAADSsyiHs3BV7NffTNFsAG65JoU0k83GHNsG2KtN2mhT3Wy/3t5c4d582nG5iaUXsigmTVsl9bLLcxybrifQy60FvTV4Rq/LXw11xBwAAAAAAAAAAAAAN6IWV+zQ7JU3P/58lfJVsLYjj2ihYkgxBDtWasXoltIkkKbhrRWCYVVQm+/6m9ZB4vFRSE/l3rO8yS5R3WpLPDa4JQustw+WtiG0S56ZYw9hd2nBakiFI+6+DUBsAAAAAAAAAAAC41s37v72ak5Jm/95dCtH6vt7S6aN6wlqx6fi11CzJ0MbeOte2v2nNgWqI1i+LVfkyayVp0nFlSvJvU3OoueR1x/a8tspbL3Wr8QrbPrGFWmtthWwJhmseH+ijOvaVlXMr4noHxpWFa/+KmvZ+tYa8qv19AAAAAAAAAAAAALg6uSvaoJ7NpeIcc7V7rk49UCLJW2NsgaJ1b9jgvjW06o0LUqTTfCalmiWf0KDq9z+NjtIYg5zaHyfOPaxMeWtyTa16rffI3L7OvmZLpa23IqqtLLXsK1vTMzqytyIe1E4+dYytXh3Pa5V3POOiZgcAAAAAAAAAANe7cC1cGKuFMa6ZLeavsUqedgGFYwOjlLxwpFxz+xDNmOe6Z5Esz2NcWPHl9GwDo5Q8L0ph1vvax82LUpjjJPUcFzYtxn7O8Rmc1+D4ruq4L64J7vG9WslHZdq9q4ZA0FrB6hNosAauGRo8MVuZzdvpFXvVqlXcSJUPslTTzp9bMd/Ux3Zpw2lvTV4Ro/WOrYujo1Q4oZ18VKKlj5kcTpjUfWOJpSVypRA2fnaMygd5qzh9l7onOa5zlZaapeBBle6hEK1fFqRglWjl3PqEnhVVqhdr6mPZlgC58vtRuPZPaCcfc7bz2gEAAAAAAAAAAK4Wm9cpdsYqpbhksgwtfDZZM1wzmaQQdWghZe1IVvQMy1fs4op8KCyklWQ2S9NuUZh5l3XMLn2jdprhENTWa1zMSM0PKlXyjGRFrzqqtn1iNGOg5Xissu33T873VuxfLXlXWB33xbXBY1JoE8mcrcHGmoaY9F56R70S2k6T4qTEJMux7mNNWvJ6rCaviNVkh9GZG5OrCRczNHhihuJnx+iVCbEqn1Bxpjh9l9yrC0aTVsk9KUTrl/VS+YoghxMlWjo2xV4t62jqY8nKquYeMmfLfaKpmitqYFyn+b1i7HvgXrja34874SsAAAAAAAAAALhMwqbFaH6QLeMo0zerUrRws6SYkTL28bYeL1HyjFXKmhajWD9Jfr2UPE1OYaVkqeSM9bN+k5+t6AUmS3XoSC8ZrSFsxf3KlJUvddNhRS8o0Yx5vdTuVIm6+Xk7X+8kxDIuPVkz8izzHsv3VjfrPbN2WMPZSvesmbfaeZXpaF71Z7u1bKJjP2QoLSVDsfajGVpnvkV3GgwKU4bS6jlOvl5S/mHLejablRbVTmEhIdLiVXKsFUz5oUSxfdooRlLK4pRa74trg0f3scl1Dkqcm1J9e+LHkqsNQi90nppZgtsLUe97GNepVY2hc93z1OfZL/T9AAAAAAAAAAAAXBJ7VWaKUmQNUPuFa+FmaWEfL32zKlkLN1tC0xnTQpSyOEXJf41V9MldVcJXxYxUbIujmjVjndIUohnzbtGMgSYtdBwzMEozgmSdN1wLFwZJ+RWnu7Uo1awZq5QWM1LGPh0t12+u7QG81fbkLkUvyLCsPTRKYSnrlLZ5nWJrvc62nhvUVk3UbWSs7hwpqfSoZj27zhpuhquPX4l2LKh6WbeWTaRTP1/QuJiWTVR0ssR6JkNHTvXSnS29q1wT5usllRYqq5rlOt8X1wr3hl4AAAAAAAAAAAAAXCRllaIdqkSzTpZVOyxtcUrVwLVWGVr4bEqV8DQspJV88w9bj5uUnO18vyKz2RIuphyvNoCsqkxpGZZ1pfxQUsfYavh7yVcllrbA1ha/863tfxXTRt3yj1etoI0ZqVi/EiXbqnPrNc7S6rhOtoB63bqqIWvl++Ka4dHQCwAAAAAAAAAAAICrWFr63unlcChfkkyaseoGJY+MlbFKZWgNUlZplm+M5i+0NM0tyq5aJdutZe3bOR4rurBOp1KpjtSn0rUmKasUbU9OM7QwPUh3Wtv/Zvl6OVSsWsWMlLGPl75ZlWIPXMPqNc5S8RpW21oGRil5ZDsd25Fcteq3mvvi2kEACwAAAAAAAAAAcI0Im3aL7pStbbB1f9aW1pMObXzDpsVo/l/Dq9mT1Vna4hTrfqaWYHdhTIZmOOyvmnWyTGpZw8VXitJSZSlEUQYpbV1FIGzZu7aiXbNFfcdZnj3W3nLYUhFbZLYGt/aAtWr4WtN8uHbQghgAAAAAAAAAAOCaFK7YIGuF6sAoJS8cqRiHs1WqPCsJmxYjo619rySpTEfznMekZRSqyK+jZgysdL8G4rzmEM0I9ba0QR5oUJgKtc4Whtr3yl3lHILWd5yktKJSyc9SXauBBoV5WdsnD4xSsrW6tbrK15rmw7WDClgAAAAAAAAAAICrULc+sTL2qfg+a0eyZiw+rKyFQda2wSVK3lGibqE3KGzzOi0MsbQTjpWsLYgtVZ5ZJ8sUG9RLydPk1GI4bfE+fTOvl4wLgyRZWxBvljTQYRG2eUfG6s6RJfomu0zdLkdF7MAoJY/0krGO4DJtcYqS/xprX7PysxW9OEOKCZLvqeP2lssxnSyVq7G29yFZ3km6V/3GPbtOaQ4tmmNlef8LN0th01rJV01058hY3TnSdlGJkmeskmqb76JfDq40bm73fHi+oReBup3vGNjQSwAAAAAAAAAAAJeR2+Gchl7CJbK0KQ4zV90rFrieUAELAAAAAAAAAACAixMzUsY+3hXf2ypOgesYFbBXCSpgAQAAAAAAAAC4tl39FbAAJMm9oRcAAAAAAAAAAAAAANcKAlgAAAAAAAAAAAAAcBECWAAAAAAAAAAAAABwEQJYAAAAAAAAAAAAAHARj/MdAxt6DQAAAAAAAAAAAABwTaACFgAAAAAAAAAAAABcxK2goOB8Qy8CwIVr1apVQy8BAAAAAAAAAAAAlVABCwAAAAAAAAAAAAAuQgALAAAAAAAAAAAAAC5CAAsAAAAAAAAAAAAALkIACwAAAAAAAAAAAAAuQgALAAAAAAAAAAAAAC5CAAsAAAAAAAAAAAAALkIACwAAAAAAAAAAAAAuQgALAAAAAAAAAAAAAC5CAAsAAAAAAAAAAAAALkIACwAAAAAAAAAAAAAuQgALAAAAAAAAAAAAAC5CAAsAAAAAAAAAAAAALkIACwAAAAAAAAAAAAAuQgALAAAAAAAAAAAAAC5CAAsAAAAAAAAAAAAALkIACwAAAAAAAAAAAAAuQgALAAAAAAAAAAAAAC5CAAsAAAAAAAAAAAAALkIACwAAAAAAAAAAAAAuQgALAAAAAAAAAAAAAC5CAAsAAAAAAAAAAAAALkIACwAAAAAAAAAAAAAuQgALAAAAAAAAAAAAAC7icbEXZmZm6tlnn1XXrl319NNPq0WLFjWOPXv2rNavX6+NGzcqOztbkhQUFKSRI0eqf//+8vCouoyLvWbLli366quvnK4ZNGiQBg8eLE9PT6fx69at0/Lly/X888+rQ4cOVeY7cuSInnvuOY0bN05RUVGSpGXLlukf//iHHn30UUVGRtZ5zbp16/T666/X+G5sxo4dq4kTJ0qSTp8+ra+++kobN25UTk6OPDw86nx2AAAAAAAAAABw4dzitzb0Eq5Z5xMHNPQSgAZxUUne+fPntXfvXrVo0UK5ubk6cOCAevXqVe3YnJwcvfLKKzp58qSGDRum++67T7/88ou2bdumV199VTt37tRDDz3kFI5ezDVms1kLFy5UTk6O7rrrLsXExEiSvvvuOyUnJ2vNmjV64oknFBgYeDGP7OTcuXP65JNP1LVrV9100021jm3fvr3uvfde+/fHjx/X+vXrNXjwYLVp08Z+/Oabb5YkFRYWasGCBcrKylKvXr3Ur18/nTt3Tnv27NGCBQs0ZMgQPfjgg1XCZOBSGY1GzZ8/v9pzrVu31u233677779fBoPhN17ZxSksLJTRaNT//u//qmXLljp79qxefPFFtW3bVnFxcQ29PAAAAAAAAAAAcI26qAC2qKhIJpNJQ4YM0aFDh7RlyxaFhYVVqcwsLCxUUlKSWrZsqblz5zoFjv369VP//v2VmJioDh06aOzYsXJzc7uoa0pKSvS3v/1NHh4eSkpKUvv27e3X9O3bVyNHjlRiYqJee+01Pfvss05zXiyz2azPP/9c06ZNq7UitXv37urevbv9+3379tkD2FtuuaXK+NTUVOXk5Gju3LkKCwuzHx8/frz++c9/avHixRowYECNgTdwKXx9fRUXF6e2bdvaj5WXl2vv3r364osvtHfvXi1YsOCqCGFTU1O1efNmjRw5sqGXAgAAAAAAAAAAriMXFcBmZ2frxx9/1PTp09WiRQulpKToyJEjVapLbWHivHnzqoSebm5u6tOnjwYNGqTjx4/rl19+kaen50Vds2XLFn3//feaO3euU/hq065dO02ePFmzZ8/Wxo0b7cHtxerSpYtuu+02ffLJJ/r973+vAQNcV0J/4sQJGQwGBQQEOB13d3dX3759tWbNGn3//fcEsLgsmjZtqtDQ0Cqfv9tuu0233nqrZs6cqa1bt9orzAEAAAAAAAAAuFjr169v6CUAl8UFB7Dnzp1TamqqunXrpptuuknNmjXTypUrtX37dgUEBNiDzdLSUu3Zs0dhYWFVwhz7zT089NBDD9m/v5RrQkND1alTpxrXHRgYqN69e2vv3r26++671bx58wt9dDt3d3dFRkbqyJEjWr58uW6++Wb5+/tf9HyV17l27VplZGTotttuk7u7u/1c69attWjRIpfcB7hQXbt2VadOnVRQUOB03Gw26+2339amTZskSf3799cDDzygLl26OI07ePCg3n//fW3btq3GcXXNZWsj7Ofnp969e2vx4sXKyspSx44dNXHiRA0ZMkSNGjVSUlKSkpOTJUl33XWXYmNjNWnSJKf1rFy5Uh999JFee+01p39vzpw5o7lz5yogIEDTpk27pF/WAAAAAAAAAADUbvDgwQ29BFyDbN1oXW379u0KDQ1Vs2bNah3nXuvZauTl5SktLU19+vRR8+bN5efnp5CQEKWlpennn3+2jysrK1NBQYEMBkO99yu9lGs6dOggLy+vGsc1bdpUbdq00dGjR1VcXFyvuWvj6empmJgYlZaWauXKlTp37twlzylZKg0jIyP1wgsvaPz48Vq8eLG+/fZbFRYW6vz58y65B3Axjh8/rqNHjzr98sKePXv04IMP6syZM3r++ef1/PPPq6ysTA899JB27txpH2fbtzk/P1+zZs3SrFmzlJ+fr2eeeUY//PDDBc0lWf7hfPPNNzVq1Ci99NJL6tChgxISErRjxw5Jsu8d3bFjRyUkJGjYsGFVnsdWRZ6enu50/Mcff9SBAwc0YMAAwlcAAAAAAAAAAHDBLrgCNi0tTefOndOtt94qyRJs9u3bV6+++qoOHDhgDzVOnjypkpISubu71zvEuJRr6sNgMOjXX39VeXl5vcbXpWPHjrr33nv1t7/9zWWtiD09PTV16lRFRUXpX//6l/79739r9erVkqSAgAA98MAD6tmzp1NlLHA5lZeX68cff9Q777yjRo0aqV+/fpIs1eeffvqpIiMj9cgjj6hx48aSpAEDBmjRokVauXKlff/jlStXqkePHnr22Wd1ww03SJLCwsL07LPPateuXfLz86vXXI7/LsydO1edO3e2z/XEE09o9+7d6tevnzp37qyAgAB999136tGjh3x8fHT27Fmn5zIYDOrdu7d27NihwYMH23/pY8+ePbrppptqragHAAAAAAAAAACoyQUFsKdOnbK3H3Zsudu1a1e1bdtWW7ZsUVhYmDw8PNSyZUv5+vqqvLxc58+fr1egejHXNGvWzB7o1OXo0aNq1KiRy8JLNzc3DRw4UN999529FbEruLu7q3PnzurcubOmTp2q06dP68CBA1q1apXmzZunhx9+WIMHD6Y6Dy539OhR3XvvvdWeu/nmmzVv3jx17dpVkqUaPjMzU0FBQfruu++cxnp4eCgrK0vHjh2Tu7u7Dh48qIkTJzr9XW3btq3eeecdSdKhQ4fqNVe7du0kSaGhoU7/Bnl6eqp9+/Y6duyYzp49W68K+saNG6tv375KSkrS0aNHFRAQoJ9//lmpqanq1auXWrRoUY83BgAAAAAAAOB6Fj+9nxYGVUQtxdk58n3L3IArqolB/3ohUD3NV+r6gGvLBQWwttacpaWlSk1NrXK+tLRUR44cUWBgoDw9PeXv7y+z2ayzZ8/W2B7YaDRq165d+vOf/6xWrVpd8DU+Pj7y8/PTkSNHVFpaWuM1v/zyi44ePap27drJx8enXs9rC4JrY2tFPGfOHK1cuVJ33XVXvea+EM2bN1ePHj0UEhKipKQkff311+rXrx8BEVzO19dXcXFxatu2rcrLy7Vz50598cUXGj9+vMaOHaumTZvax5aUlOjYsWN69913q53Lw8PDXp1+7NgxGQyGGu9b37lsAeyFVMnXJiQkRE2aNFF6eroCAgL0ww8/6Pvvv9ef//xnfsEBAAAAAAAAQK3efXKAJvud0dL4f2uKJKmLMhIDVTRdlxZyDgxV0agbtPuLf+t/NrtosQAkWbK/ffv26eDBgyouLpaPj4+CgoJ06623urT7bL0D2F9//VXbtm2Tl5eXpk+frtatWzud/+GHH/Tee+9p+/btCggIUNOmTRUcHKxly5YpNzdXwcHBVeY8ffq09uzZo19++UU33HDDRV3j5eWlHj16aNmyZTpw4IDCwsKqXf+PP/6ovXv3Kjo62r4xrre3t/Lz81VYWKgOHTpUuebYsWM6fvy4/Pz8an03jq2I61uNWx2z2aznn39ew4cP16hRo6qcb9q0qdq1a6cjR464rI0y4Khp06YKDQ1VQECAJKlv377q1KmTXn75ZZWWlmrSpElq1KiR0zVJSUnq0aNHjXPu2bOn3nsk1zVX5TbCl8rPz089evRQWlqahg4dqp07d+rmm2+m/TAAAAAAAACA2g0M1Ri/c9rwxW5r+CpJBxWyvYXO922rd2V2OH4lMOt/nrmSK18LtPovCdJTiRpReyRzbUhbpPgj45QY3brusVbpb8Yr549Xw/tJ16LwjRpkekShFzlDgTFeCZqpxOi8S57L0dmzZ7V27VoVFBSoQ4cOateunU6fPq2dO3fq0KFDGjp0qJo3b+6CO0n1jnKLi4uVlpamXr166Y477tDvf/97p6/IyEh1795dJpNJRUVFkqTbbrtN7du31wcffKDjx487zffrr79q48aN2rNnjwYPHmyv5ryYa26//XZ17dpVy5Yt0w8//FBl7UePHtXixYvl6+uryMhIe2Vbhw4dZDAYZDQadfLkSadrTp48qXXr1ikwMNBedVcTWyvi/v37a8WKFcrPz6/va3XSunVrdezYUV9++aWysrKqVN/m5eVpx44d6tixo8s+AEBt3NzcdNddd2n8+PH68MMPtXbtWvvnsnnz5vL19dWBAwdqnaN169YyGAwym53/415WVqb58+frrbfekqenZ73mcrXGjRvr9ttv1969e5Wdna3du3crIiLikn6RAgAAAAAAAMC1L777DfIp/VlrKleopuyWW7w1lB0YqqLEfvrXQNvJLspIHJ8ctW8AACAASURBVKCMGOu3MT11PnGA9cs2rosyRvnIRx6KHFVx7btPDqgY+2QX++3efXKAzj8Zqn+9YDvfU+9a71PxvWRpQTxARdMN1nU5zOd0f1U677j+yylPuaYABV7x4aIrFGj1B8sV0KH+4avyV+v9v18l7yc/R7nhAfKve2SN8nJTLe/HBXM52rRpk4qKinT33Xdr6NChGjBggIYOHaq7775bp06d0ubNris5r3cAm56ersOHD+v222+Xh0fVwtkWLVooIiJCBw8e1L59+yRJbdq00Z///GcdO3ZMjz/+uD766CPt3r1bmzdv1pw5c/TWW29p9OjRuuOOO+zzXMw13t7eeuihhyRJjz76qN5++21t375d27dv1zvvvKNHH31Up0+f1uOPP642bdrYr2vXrp3Gjh2r7du3Ky4uTklJSfroo4+UmJioqVOnaseOHRo9enSdFbBSRSvi+oytbY77779fkhQfH6/HHntMy5Yt00cffaR58+Zp+vTp+vnnn/WHP/yh2p8BcDk0atRIf/jDH3TLLbcoOTlZhw8flmT5BYawsDBt2LBBJ06csI//9ddf9dZbb+nBBx/UsWPH1KZNG3Xp0kVbtmzRzz//bB/3448/aufOnerQoYMCAgLqNdfl8Lvf/U7NmzfXV199pfz8fPXq1euy3AcAAAAAAADAtSO4pYd06hclXvQMXZTRt4k2fLFVbvFb5ba9TJFDQhWvgwr5oljFOqcN1hbE8dP7aXKLYs2I3yq3+GPK9GtrCVJt/G6Qvt4qt/gcbShtpsmJLZRqG6tmGjO90vZwm9PlG2+9b/xWLc2XlF9gbXdsCYDztjusa5QtxL2Mag3aCrT6L+EKD7d8LUpzOJW2yH48PHyR0iVZKjBtf7ZIfzNc8cYC+59t19iOVaemcQXGeMUb0+1rijcWqMAYbx0br9X5FeMWGVcr3mmOAq3+S7QSTNLyafFanZ+uRQ7X2J7V6RnzVyt+VIJStVxT/7JaBbZjVZ67mjdnX1e4wm3X1nG943OHv5nuNFe8cbUW2Y9X/3Mp2P6NFBmhvDerzlFpdU7XV7zjAuUcilCAv6S8XKV2DtQFRNU1OnXqlI4cOaKePXvK39/5k+bv768ePXrIbDarsLDQBXerZwB79uxZbd26Vd27d1fXrl1rHNerVy8ZDAanlqOhoaF67bXXNGzYMG3ZskXPPvusXn31VUnSvHnzNG7cuCotTS/mGoPBoBdffFEPPfSQDhw4oPnz52v+/Pn6z3/+oylTpujVV19VYGCg0zVubm4aPHiwXnzxRYWGhmrTpk36+OOPtX37dvXo0UOJiYkaNGhQvfeC7Nixo0aPHl2vsTXp1KmTFixYoNjYWEnSP/7xD3388cfKzc3VPffcowULFtAeFb+5G2+8URMmTNCJEyeUnJxs36N5zJgxysnJ0fTp07V27Vpt2rRJ8+bN06effqoRI0bIz8/PPm7Pnj165plntGnTJq1du1ZPPvmkbrrpJvXv37/ec12IZs2aKScnR2vWrNGhQ4dqHOfr66vf//73MhqNCggIqHWvWgAAAAAAAABwHQ9FhlurWVN2y+2Z9GoCXYOGGzxUbC6ynjuopdnn5GPwVbxtiD08NSvnlKT8U9b2x2eUV1r7Cuzh7ssHLQdiWii4tFhLU6wDUo5pQ2kzRcTUOIVr1Bi0WQPLzktkMplk+mKmcqdZA8P81YqfJi0xmWQymWSclav3jQWS/BUQnqscW6iZv1rvH5qpmdGtlf5muKYemimjySSTaYkC5ic4hJ8VahuXl5sqbdgoPWVZj+ZHKzr3AesapG+2W4LW1A2pWr5BmmmyjUvQ6vzWGvHUTEWEz5TRlKgRfv4KCHe4cdpyJXReokccd9v0G6GZsyIUMcso06sj1Dp/teJHfaM7v6h47qmO4apN/molzA+wv58lnROUYCywB7oBix2ut4akBcZ4TZX1XZuMmnnofafnTp2fq0Emk0wP+2v1X6L1TaSx4ufygWUNlveToI23W97duL9vrDYgTn/T4XrTEgXMX24dl6dc3akIP6ngSK7G3e6K5sOyF3/ZtmCszHbcVQFsvcooPT09NWvWrDrH+fv765133qly3MfHR/fff7+9urM+LuYaT09PRUVFKSoqqt7XuLm5KSQkRCEhIfUaP3HixFrnGjFihEaMGFHjmFtuuUVffvllrffw8fHRn/70J/3pT3+q15qA30Lv3r11zz33aPny5YqIiFBkZKR69+6tv/3tb3r//ff10ksvqby8XN26dVNCQoJuu+02+y8vOI577rnn1LRpUw0fPlwPPPCAvL29q4ypba766tGjh/r376+33npL2dnZeuyxx6od16hRI/Xt21crVqxQ79695eXldWkvCgAAAAAAAMA1L/PkOcnQVPHSRVbBHlRIvJSR2FbnE9taDuUfk5stCLVrJn8vKa/wMuzfGtNTC4PKtDS+IviNb9VE8mqmhYkDtNBhaHErg6TLt4ds+pblGnf7I1VPpC1XgmmclrxqDeH8InRn+DfKyZdCFaGZphHVhLatFdg5VRvzJPlJ6Z8mKGCCSa3zVyvh7xGa+YXtmlANuq9inF3+ar1f47gC5RySFDnOshdrviSN05KHK4eEeco1jdMS2/r8InRneIJy8yQpV6mdB1nndlxrgVZ/kKuZT1UNHPNyUxVwu+WK9E8TpFlG+16wraMf0Lj5G5UnOb8L6z2nhktLTI8o9GGTEiWlv5mg1PuWKNEa8rbue6ciNuSoQKFS35kyVbsvreW5xy227sWatlwJmimjbazfCCW+ahmXekhS5EznELma+fz/aFJidXVXaRu1vPMgPaICrd4gBTxV2zz1Z8sYbAWklZWXl0tSlQLQ+njrrbeqHKOPLQBJUnR0tKKjo2s836hRI02fPl3Tp093Ot6lSxclJCTUOX99xtU1xtPTU3Pnzq3XcV9fXz3//PNOx6q7VpKaNm2qtm3b0n4YAAAAAAAAQL0k7v9ZzwTdoOEDpUTHbSMHhqpo1A3a/cW/9T91znJQIfEHHa5rq4yYgwrJcxxjqWLt6eoAdGCoivo20YYv/m2tlrVILCzTwtKfNaPaatzLxdpy9o/VnDmSKylVU8OXOxyN0ExJBdsTFD0/1Wn8uMWWQNA/IEK5RwqksDxtPDRT4x6WlJarVKUqdVS4HP8v9LjbK900r7ZxlmD1gVdbV4y9b5D1XVmqXgMmtJbyU5V73yA5R6mWtroF23MVEVDRAte+Vi1XQucHZKoSSjq+H8uf7/yjQ0ian6Pcqq9OUmuNeNWkEdZ2w6n3LZHpYX9LgGyaqvC/OwwNn2lZ/0uW9sgOT60lfhXPPehV64qO5Er2ENnp5Tm/nxpbS+dp+ahoOf5UFT5T46xzW96PZV/gQS7a97ZNmzZyc3NTVlaWBgwYUOV8VlaW3NzcnLYyra/p06c7hbDTp08ngAVwffv111+1adMm9ejRg/bDAAAAAAAAAOpnc7pWhg/Q5FE99e7m3dYQ06B/DfGRT/4xa0vgX5Q3ykc9uxukzWZLe19JmZJzULtZ0uZflDfqnPLyKt/IrDXmDoo0+CpeZiWqiyYHeag429KS+OL2Zq3Y5/V/Nlc6lXJKmX3banKMlJhiW6dlbEhKdXO5Qu1BW8QsoxKrVGWma9F8aeYXJmslaLoWhb8vW67ZukOAUrfkqcD4vjQhsSIovG+JTFWqVatR07j8HKdgNX3LckUEjHN4DmtImZarVDlsi5mfqm9MAXrAzyGkleNaU7V6Q/XVrxXXVr/Ugu3fKPW+ByoF5tb38UWiRviNUKIpUIvCNyr94XGSIjTzi0R7Ba1d2iJLVautajdtkcI/sIanaRu1/L5BcqxRdgyRnd6PY+Ca51jt67Bm4/ta7vCOC4zxis61tKBOt1X75qfWsi/whWvevLl+97vfKSsrS97e3goNDbVXxe7bt0/79+9Xo0aNdPbsWd1www0XPL8thLUVsdVrD1gAuNacOXNGKSkpmjNnjtasWaOhQ4eqcePGDb0sAAAAAAAAAFeJKS9v1YzsJpqcOEDnEwfofGKgeppzHNoIW/drDQq0nA8o0wbbnqyb0+W7vUyRo2zXtpV/9hFrGFuk3aUeihw1QBkxUuJb/9bSUz5aaB0XnH9Mvm9dfDVs/PTWCpYU3Nd2b8tXRoxlzSFfFMvfdm6Uj5SdcxnDV9VSJWkNJzek2vc3TX8zXOFvVt1RtMD4vpYrQIG2UNE/QBHaqOUb7tS4MIdjDvuRFhjjFV7d3qm1jCvY/o3sKa+tGrVv1WrP9C3LpUM51rkLtPqlBGnWOIUqT7mmCFXJLv+eoITOD1QNRSVLiGl/P5aWxZZ9ZmXd5zW1mn1S/RUQ7jjOViVb6Xqla1F4uBalVXmjWv3Bcsm6L29FVaqF88+lYo6C7d9IkRH2wNXSWrquwDtdy+enWue3Vvv6q5Z9gS9ev379dNNNN+nbb7/V3//+d33++ef66KOP9O233+r8+fM6d+6c1q5da98v9kI5dhClAhbAdam8vFy7d+/Wnj17FBcXpx49ejT0kgAAAAAAAABcZRLf+netrXprPZ+yW27VBptm/c8zzgHrlJe3OrUKrum48/fO81T82Vx7e+HN6fKtXBl7OeXlKtW0XNHhztvTjVts0iNhj2hJ5/CKcw5Vk+NmSdG2NsH3jdM4x4v9AhXw9wRpsakiwPMboZmz4hUdHm75PnymjK9Ws4dsLePSHfZirVK5a6/2tOyDOi5SSggPV6qcq3gDwlOVMGqRAk3W/VT9AxShcXqgpspc/wBFmBIU/WagTA+HKvRho+78S7TC5zu+p8oXtdaIp2bqm1G2cZaq11BJeniJAsKru36cZira/q7H3VfxRvOcnltSpZ+LbY70LY7jam4t3Tr6AY0Lt7VBjtC4+yIsJ/JT9Y3u1Ew/Kf3TGvYFvgQeHh4aNmyYfvjhB5nNZp04cUI33XSTOnXqpLS0NJ04cUK//PKL1qxZo+HDh+vGG2+86Hu5FRQUnHfh2gH8Rlq1atXQSwAAAAAAAACAq55b/NaGXsI163xi1b02Ha1fv16DBw/+jVbzW0nXovCNGmQLWOtQYIxXgmZW02YZl+JCP1u//PKLU/Vr586dFRkZWWXc9u3bFRoaqmbNmtU6Hy2IAQAAAAAAAAAAAFeopaWy87jVig8PV/SGOzWT8LXBNW3aVMOHD1eHDh3UtGlTde7c+ZLmowUxAAAAAAAAAAAA4Ap+I5T4aj3HmUZc9uWg/po0aaKhQ4e6ZC4qYAEAAAAAAAAAAADARQhgAQAAAAAAAAAAAMBFCGABAAAAAAAAAAAAwEXYAxYAAAAAAAAAAAANYv369Q29BFyjLtdnKzU1tc4xBLAAAAAAAAAAAAD4zQ0ePLihlwBcFrQgBgAAAAAAAAAAAAAXoQIWAAAAAAAAAAAAvznaD+NyasgKawJYAAAAAAAAAABw3TqfOKChl3Bdow0xLoeGDvdpQQwAAAAAAAAAAAAALkIACwAAAAAAAAAAAAAuQgALAAAAAAAAAAAAAC5CAAsAAAAAAAAAAAAALkIACwAAAAAAAAAAAAAuQgALAAAAAAAAAAAAAC5CAAsAAAAAAAAAAHCVKS4u1pQpU7Rnz56Lut5oNCo8PNz+lZSUdMH3Dg8Pl9FovKj7A9cyAlgAAAAAAAAAAIDriNFo1Oeff661a9fKZDLJZDJJUr1D2K1bt8pgMGjjxo2Kjo6+nEsFrkoEsAAAAAAAAAAAANeRw4cPq2fPnvLx8bEfGz58uL7//nsVFxfXa462bdvK09Pzci0RuKp5NPQCAAAAAAAAAAAAcGmSkpJ07Ngxmc1m7d+/X+3atdNrr72mgICAKmM7duyozz//XMXFxfYQNiAgQImJifYxubm5evzxx3X06FFJUmxsrOLi4mQ0GjV//nxJ0u7du7Vw4UIVFxfbx9Z2X+B6QQUsAAAAAAAAAADANWDv3r165plnZDKZFBUVpffff19nz56tMm7w4MEyGAy66667FB4ertmzZzuNO3v2rN5//30999xzMplM+vjjj7Vr1y7l5uYqOjpas2bN0pAhQ/Tmm29Kkl544QX72Oeee04vvPBCvStpgWsRASwAAAAAAAAAAMA1ICoqyl552rFjxxrHeXp6au7cufZwde/evRo0aJB9D1jb+R49ekiSioqKVFhYWO1cOTk5MhgMCg4OliQFBwfLYDAoJyfHlY8GXFVoQQwAAAAAAAAAAHCdCggI0D/+8Q97y+Hw8HD16NFDSUlJSk5OliSFhISoVatW1V5vNpv19ddf6+uvv3Y63qdPH3uAC1xvCGABAAAAAAAAAACuE8XFxZo3b54eeeQRp31afXx81Lp1a0mW/V937dqljz/+WAEBAcrNzdW8efOqnc9gMGjIkCF6+umn5enp+Zs8A3ClowUxAAAAAAAAAADAdcLHx0c333xzlX1at27dKkkKDAyUJBUWFqqoqEiStGbNmhpbEAcGBspsNiszM1OSJbz9wx/+oD179lzOxwCuaFTAAgAAAAAAAAAAXEfi4uJkNBp111132Y8NGTJEb775pjw9PeXj46OoqCjFxcVJkubPn6/du3erqKjIqWpWsgS6zzzzjB5//HEdPXpUkjRr1izaD+O65lZQUHC+oRcB4MLV1G8fAAAAAAAAAICrwfr16zV48OCGXgauQQ392aIFMQAAAAAAAAAAAAC4CAEsAAAAAAAAAAAAALgIe8ACAAAAAAAAAACgQaxfv76hlwC4HHvAAlcp9oAFAAAAAAAAAAC48njs3r27odcA4CKwMTkAAAAAAAAAAMCVhwpY4CqVlZXV0EsAAAAAAAAAAAC4bkVERFR7nAAWuErRghgAAAAAAAAAAODK497QCwAAAAAAAAAAAACAawUBLAAAAAAAAAAAAAC4CAEsAAAAAAAAAAAAALgIASwAAAAAAAAAAAAAuAgBLAAAAAAAAAAAAAC4CAEsAAAAAAAAAAAAALgIASwAAAAAAAAAAAAAuAgBLAAAAAAAAAAAAAC4CAEsAAAAAAAAAAAAALgIASwAAAAAAAAAAAAAuIhHQy8AAAAAAAAAAABUL3b8xIZeAi6T5A+X1Wscn4FLw3u+dLzDC0cFLAAAAAAAAAAAAAC4CAEsAAAAAAAAAAAAALgIASwAAAAAAAAAAAAAuAgBLAAAAAAAAAAAAAC4CAEsAAAAAAAAAAAAALgIASwAAAAAAAAAAAAAuIhHQy8AAAAAAAAAAAC40iS9/OFAta/mzE+bJ+rJd3/zBbnGsCf19rhgKfMTPfjiVw29miveSy8myGBor02bNuvdpe/Zj/fvH6GJE8bLw8NDxi/XaOXKzxpwlVc327uUpGUffKht21Lt56ZMnqQ77hiooqIiLX77HWVkZF7Q3E89+Ve1b++vxW+/o/GxsZZjT8+039PT01P792fopZcXuO6BGpjt2QoKCvXU0zNrHBcSEqxpD/5ZP/2UV+3zO767C33vrkIACzSQHTt21Htsnz59LuNKAAAAAAAAAFyLKoetw59O0r0DEzTl3Zm64jLYYU/q7XGdlLs8TjVlq8N7dJLyfpI6hWm4vtKa33aFV6Wff/5ZQUFBTseCu3WTp6enzp0710Crurb897//VePGjRXcrZtTAFv5vbvK7QMGqLS0VK+9/kaDhYuXS3C3biotLVWzZl7q3z/C6X26yksvJkhSrQGvK1xQAJv13t2KXymp96P6aO4Q+V6mRf3m9i/V3d/215eTulV7umjdHN3/uvToB3M05MYa5jjxteZMeEN67CM9qjd0/+sdlPjlZFU/I653O3bs0NChQ+s9/p///CchLAAAAAAAAIBLsubFnbrjw4HqMkW68hLYukzSHcFS7vJs+YwbqDumSGuuumf47Z05U6qWLVs4hVk33nij8vOPq2XLFg28umvHyZOnnALXkJBgNW7cWPn5x9W48aXXQlYOC8+cKb3mwteQkGDdeust+s9/Duh3v+uq2wcMuCwB7G/lAn7qWdq2UurTu4927HxDn+0fosndL9/CfjtF+vrTz6RO/Wsc4Rv1J41+PV5vrMrSkJpC2j2p2qHRSozyla/m6Muoy7VeXO0uNHyVpKFDhxLCAgAAAAAAAHC5KS8v0x3+1m/yNiv2yfeqOXdGGZnFCgmWNo2fqXenJCh5oPXPUjXVq84tkJ0qcackKHmg7cwZZSyP04tfTdLL44LVTFLIuCQ9rWqqYKcEqf2ZH7Tpq/fUftBA3dFlkqT3HAbUfM/hTyfp3uBm1ltm6uNpL1urZ2u+xum9OF5jbYPcrLpnuwKVlJSocWMPe3VmSEiw2rRpI7PZrJYtK/KOMWNGK/ru4fLwsMRGZvNPeurpmfZWr//97zm1auUrDw8PnT171qndrq3VsSSdO3fOqa2xrQ2vJBUVFcnLy0vffrtd7y59z+mela+72pjNZgUF3WwPuoODgyVZ3v+NN7a2j3NsHyzJqT207V37+vrq3LlzKiwssl9nq9osLi5W9+4hkqQl7yxWaWmpUxveKZMn6dZbb2nQ1rsXKzg4WB4eHvouLU0tWrRQ+/b+CgkJtj+H4+fl1KlTTtfW9u4cPfXkX+2f1ZdeTNBTT8+8bJ9D93qP3L9Nn6mPIh75k0ZL+uzbrEu++dWjm/qPkbRym6p/6iLt2LpDGtOfilfU27lz5+r9BQAAAAAAAACXavjTvdVeP+mgQzB5h3emPh4/UbHjP1GG90C9/fSwinP+P2nT+ImKHb9K6lTdjrLVGaanFw+UT+Ynih0/UbHLM+UzMEmWaSfp5YE+ylg+0XJuc7FC/vdJDdd7enJ5ps7YA9mqs07p0l5nfkjTGknvbszUGf8gTanPPack6N7gYutzTNSmkmDd+/KkOq+peC+Wa0Y9Pcxyzf8Gq3jzRIdrEhzWceUpKyvTTz/l2aszbcFgfn6+fUxISLDuGHi7tm1LVez4ifr8i1Vq3bqVxowZbR/TsmULvbv0Pb340ssqLS3ViOhoSZbAr1kzL7340suKHT9Rx47lq0/v3pIsYeNtt/XVpk2bFTt+on76Kc8ePPbvH6FhQ4fY77ltW6qGDR2i/v0jfpP34mr5+fk6d+6cgrtZUqIuQUE6fvy4ysrK7GNCQoIV88ex+v77Q5bP1abN6t8/wv6eR44YIUl68aWX9e7S96qtUH7p5QXavz9DRUVFeu31N7R37z57UClZ2h7/9FPeVRe+SpZ3dvLkKW3blqotW7fKw8PD/nm1fUb/858Dih0/Ubt371GLFhXvpz7vTrK8P7P5J/svGFT+HP7nPwdc9jmsZwBrrRLtHaE+N3bT6Mf61BJGZmnp3XfrbvvX0irjitbNcTh/t+asq5xEV55jjr4+UfV85ess81aMtXy/VFknvtacau+XpaV33683dkpaGV/NfSp0G/mo+ugzbdtfzcn9n+mNndLo27o539dpzFKnZ7579tcqqnRuqePctjW/5zhLkb6e7XCs8py1rB9XHgJYAAAAAAAAAJdT+4HLlPxhxde9wVLGctv+r8MU1qmZftppqwb9Si/u/EnNOoVpuPXcmczN1rGWc/UyLEwBzX7SDluK+tXL2pHXTAE9hlkHNFPIoEmWP747U7H2atTaTFIXf8c505R7pr2llbL9nmeUu6fing+OtwS5U7q0l/Ky7R2X331yoqXKt651NgvWHVMqrnnQIRVu3/tJDbff5wrcT7eSg9nZaty4sUJCgtUlKEj//e9/VXr2rP18Rkam/t+jj9srMX19fOyVsDbff39I27alKiMjU2fOlNqPv7v0Pf2/Rx9XRkamQkKC1ayZl/2cLYzMzLJkGlu2btVZ631te32mmkySpFSTSaWlpfZrrjalZ8/qp5/ydOONNyokJFjt2/vrxAnnwCY4OFheXl46mJ0tyfLMp06dUpegIPs1tvB027ZUff/9oTrvm5mVZQ8q+/ePUMuWLezzX01sldk7du6UJG3blqqTJy3vRqr+3RUVFdmvvZh3J1X/GXU8finq14L4xA6l7pT6PNbHsu9rjwj10Rv6ZN1ozYly2AnWug/qjjGJ9v1Us967W/F3y74fqmUf2T569IMvLfupnvhacybcrzn6yDJXNXMUrZuj+yfcrSMLvryItsefKX7Ro/royy/la5vr9fu1tP2Xmty9myZ/+ZE6zL5fb3RKrHEPWEnSjX0U0Vt649OvNbrS/rdZ334m9X5Uo2tYm+WeOzTavv4ifT37ft0/W5a9dLv312h9piM/FUndLTNbWhpL+uGwitTNcj/rz2H0H7tZwte/fuYwp+09LVVH9p69Kvz6669Vjk2dOlVLlixpgNUAAAAA+P/s3XtcVWW+P/CPjXPJqUbE2SIGpjVHzINRsSURaS55oY06gce0RE+CMXhmxBNTIvQz8pW3Un/AzNFRN5bilDlCGu7BS805g4oxmxqSo+Avr6CEOxHzgia33x/rstdae+0LuLmIn/frtV/JXrdnrfazLs93Pd+HiIiIqKexp8ediEV/mo5Hvy1V9C71R98+YpA2Ur2cp31ddT34E/SBP57e8h6edljrJiycBazcEoncLeJGNWmP9Qg9d/vAX7vO0IV41rwSf33wJ+iDy/jGoefsRPz0J0DDWZ3gsatyLk9DHJYhV3FshGO5B8t/Ayz603TM2PIeZgCalMbdU21tLe6990d44vHH4e8/EEeOlDvMo0wjfPPmTY87BmnTtzY1NckB2v79++PGjRtyoEypf//+8PHxwaLUhQ7feyp3y3sO38XN+nePl/e2ixcvYuTIYDzx+OPo3bs3KiorMTYiQp7u07cvAOH/h5aPjw/uvfdeVdD24sWL8Pcf6DCv0qFDxZgUHS0HKm/cuImKCs97v3aXYxg+ejQMhp/i11Mm49dTJsvf+/r2w5gx4Q7HTvkiQHuPHeD6N+opZ8fQox6w0vim06VgqxiMtB60Qlmkyo+zYA1NxlZFIDNozmrEyPb79QAAIABJREFUSD1HL+7Dtjwg5u0MIfgKAP3HI3mBUV6X3jp8xiUjORTI374PbT8ERiT/zh4w9RknpFCurmnrmnwwfloMUFoMq6Y37qE8wBhhVAVlldPzM61A7GpF8NgH43+XDGNpFrL210NKcaw8nheqrTDGxsCo2J70/2HMCKC+phoQ/y2vdVwGLAy+3jG0vVznzp0LQAjCsgcsERERERERERERec8eLP9NEWoG2lMMAzW43CAEFuNmKT+32aPz3LdoQI2c8lf+yEHWTVg4y57Ct2FgJFa6zOEr9tTVlvP9CjT0GYzHJkrb7IufTtQuuwfffAv06asTUnZXTnOa/N0HFQ3wl1MN78Hy30jzF6Gmj5SeuPuSehM+rggMKsXGxsDXtx927voYcbP+HXv27vN43cbQUFy4YEPcrH/HS3MSUFd3SZ528eJF3HvvvfDxcYyeXLx4EfX19XLqYukjjWXqCW2gsCuDr4C9N+rjjz8up9JVqr98GQDg5+fnsGx9fT1u3LihCkB7Gow+ceIE/P0HYsSjj+Kbb75pU/rh7nIMH3nkERw9ekz1W/jT+g0AhN6o2mOn7G19O8fO1W/UU86OoQcBWCmAqBzf1AfGCCNQmoV8OW1uParOAhgcqAlEBiHeIvbSvFANK4wIGKDegs+4DFjeHA8fp+uQtleNC+4LrBGAQM9fmHBtxBjEwIrif9qDt/X7tyFfGZzWOnoI+bCnJ5ZJQexqYY+CwpTBXSGoGxA2BgGwQpwFF6rt/x98Hg+HEflI0U3hTHeCb7/9Vv4kJSWppiUlJammExEREREREREREd2eTVhYVIM+wyeL47HuwZdnG+zpdAEkrHwPuX9aiGeldMTDI8Wg40QsClUEMc99iwbYUwA/+/hg9JGmiemBjXJQcg5WbnlPCPxOXIj1W6TxYAHs+QaX0YDL51wUW0wV/JU2KrznS5xpEFMGK/+t2ObKBMD8VQ2gGC/22UVrhX10UU55HnHKX7+5DDR8ixrFegVCEPuyY9fbbufEiRMwGH6qGxgEgN69e8u9DI2hoQ4piF3p0+dePProcMTGxmDAAIP8vRToldK5jo2IkMeAraisxL333ovw0aMBCEHgdzeZkRA/p037JQW7ujr4CtgD3QbDT3FCJw1wRUUFbty4IfdWDR89GvffL6QMPnasAjU1X+Phh4dizJhwOa2uJ6Rj+bOfPeKQ9tgTXX0MnaVOPnSoGHV1l/DII4/Ix04aX3j48OHyGLC3e+wA9W9U+b2n9I6h+xokBhCRlwJTnuPk/JJKxI8IAnAB1aUABjtfldBr0xX36/AWIfDZ1oi2MP7tzMx8VI6LRxDqYT1oBWKnu+11mv+aSTiOWtK+jhiDGKSIwdYqVCMG00cEAbFASkkl4kcAh/KAmLfFLfUfjwyLEfvemImszJkwZQpfGxdsVaeFpm7rnnuE9x9ee+013empqal4+23P3/YhIiIiIiIiIiIicslchGOh0/HoC8uQsCcN5uXz4L/yPXs6XdTg77PEdLrmNHzw07WYIaborfm6BnKUdc9KWH/xHp4WU/Q2VFSgRm7s3oPlv/HHyi3TkbtluvDV10WIW74HwB4kPrgMuS+8h9wXhEkNFduwcA8AfIkzvx6OR194DysflFInAwm/GI4+Xxfp9Mrdgy/PTsajwyORgDSHbTZUbEOiGQDU+6Hcx7+6KKf6uDTg2PtpwjLv/xTrX1Ckbf66CHHdfRBYCAGlsLBRuoHBvLx8GEND8fTTkXj66Uj8859l8PXtJwdkXbGWliLa9CwWpS5EfX09Tp8+g/79ffHoo8Nx6FAxhgcFyes9c+asPAbsoUPF8PPzQ7TpWTz9tHAwjx49Jo9D2xbdIfgqOXHiBHx9++kG8I4dq8CH2/+Cf589S05b+/e/FyEvT4gerVj5NlYsX4bfJL4MADh/vkY1pq4zUhpiZ9v1RFcew7EREWhqatJNnXzixAmMGROO4cOHq47dzZs3cfXqVXm+thy7EydO4OmnI5Gd9X/xp/UbsGfvPvl32NTUhN2Wv+q+pOCO9hj2qqura3U+uzBWaRaShbFKNVOF8VxjxPFdK5FjSkF+rPOxVIWxUIHkzYoUxHrb0xmPVVg2QLWtak2wUbt+9TJyqTXldL5NXeIYtQFvWxCPHJheq3bYH9V2j+rP42rftwZsw8yD4dj65nhgf4bw72nVmPkaNPuiJvz/YBC2u7NarZgwYQK+/vprj5cZOHAg9u7dC6PRKH/Xr1+/jigeERERERERERERdSPdJriUsAy5kcDfbzdFMcn0xo7U021+A7dpzJhwvPjCDHz6t/+Wg46d4W44zqkLX0Pfvn2RuiitQ9Z/NxxDb3OdgviiFcWlzsc3DQqLAZCPbYpxTHG2SjNOaz32vWGCaVOlmDbXnlJXdjQHJlMG9l30QeBgAHmHUKlZh/WgFQgNgCZ7scqFaqvL3fEKMXVwfkklKkvygdBwGF0FVnXSFgsqkaNKHyymWT57CPkHrfIx93k8HMbSYmRtz9ekgXYkjLdrT2tM3ds999zj8YeIiIiIiIiIiIiI6E4SGxuDtf/1B4wZEw5A6On4/e9/H7W1tV1csp5FSrmr17uZuo7LyE79P4thhRHhjzvpTTlijBDwO2hFPYCgyckwlmZh5iZ7+LR+fxaySo1InhwE9B+P6bFA/msZ2Cenoa5Ezmv5QOx0jO8vrgP5SHFYBxAzTeqFKwR7rZn59kDt0Ryk6KRIdk8M+joEjp3PP35aDJCXIvQ2dRKcthPSFlszZyLnqP3byk0pDmPHCsHWfOSXAgH+4vf9AxEAK6yl6nFk6/dniEFrxaacjTdL3RIDsERERERERERERETUU+Xl5ePKlav4TeLLyN3yHoYN+xfs2buvXeldSV9sbAxe/X0KGhputCt9M3UcF2PAViI/0wrErnaROlcILuZnZiH/6HjEjxiPDEsgckzK8WJjVGlzg+ZYsDUgAzNnm5AlfmdcsBUWKRDZ39k6MlS9P4PmbEXy2ZlIMYnd1EOTsfXtGMx8zd04szp7ERYD5GVhpikLMW9bED/CzQIjxiAG+Q4BVGd8xmXA4p8Dk3Ic2NBkbLVo0jqLvWutpTEYI5dBCDbn5ym/E9a5FerjCMCz8lO34OPjg/p692F/Hx+mkyYiIiIiIiIiIqIuZk67I8Y6pe6lo1LikiAvL79T0zmT59yMAUtEHUEaB9ZT2vFfAY4BS0REREREREREdDfgmIo9F8fV7Bw8zrePx7DtXPSAJaKOYjQasXfv3jbNT0RERERERERERERERN0fA7BEXYRBVSIiIiIiIiIiInLH055nRETUfdzT1QUgIiIiIiIiIiIiIiIiIuopOAYs0R2KY8ASERERERERERERERF1P+wBS0RERERERERERERERETkJQzAEhERERERERERERERERF5CQOwRERERERERERERERERERewgAsEREREREREREREREREZGX9O6Y1VYix5SCfJ0pMW9bED+iY7aqVo99b8xEccRWZIzz6YwNEhEREREREREREREREdFdroMCsILOC7a6IwSE0W3KQ0REREREREREREREREQ9UYcGYLuWD8a/acF4AMCFLi4LEREREREREREREREREd0Num4M2Iv7kGEywSR9NlUK3x/NgcmUg0p5xnrse8OEjP31OstlYN9F5fpykLNJmJZzVFruDPa9IaRDzn/NhJyjettXrAdA5SZFud7Yh/qOPhZERERERERERERERERE1CN0aA/Y/NdMqnFgjQuk8Vjrse8PWQh424KMERCCobO3Yd/kDIwfMQYxSMGho/EIGgHgohXFpUaE/84HQCVyZtuXq9+fgZmzcxBoiUeQsEVUB2yFxSJuAwDwE4x/czWqVSmI1evB0RyYpPUczUHK2WRstYyHD4RgbNZ+I8eRpTvWpUuXuroILlVWViIoKKiri0FEREREREREREREROQVHdoDNuZtCywW+8cexBTSA8vjsV6ohlVeKghjYoH8kkr7tNjpGN8fwNFDyEcMxojL+Yybjhjk45DUqxVGhD/uQaD06CHkhyYjRtr+iBgkhyrWU5qFfPHfQXMsDL4S9UCVlZXuZ+J2iaibYV0m6hlYl4l6BtZlop6BdZmoZ2Bdpp7sbmtT7inb7bIxYCs3mZCSJ/4RaoRRMS1ocjKMsw+hck4QUJKPmLB4AEB9TTUQGo4Bt7nt+ppqoDQfM01Zqu+NEfXAuHhY3gZMit67MW8rgsVERERERERERERERERERE50TQD24j5syzMieXOG0LP14j5kzC62T+9vRHhoFg4dHQPkxWDMHOFrH/8AoLQaFwDcTp9UH/8AIDQcW98cr7+eEfGwWMSg7/4MzHwtB2PkNMdERERERERERERERERERPo6NAWxa1ZUXxD+VflxliIFMQD4wBhhRP5rKaheEGMPfI4Yo0o5XL9/myolscdGjEGMIs0wLu5DhsmEnKNCwNX0xj7USyXxDwBCA2671y0RERERERERERERERER9Xxd0wO2/3hMj81CipjmN+bt1YjJSxECsv2FWXweD4cR0IzpGoT4zcnImG2CCQBgRPJmT3qmCuPKprxmQvWCrcgYp10PYFywVUgzPCIDq6tNivTEwjY4CiwRERERERERERERERERudOrrq6utasLQURt169fP4/mu3TpUgeX5PZUVlYiKKjzE3xzu0R0J2JdJuoZWJeJegbWZaKegXWZqGdgXaae7G5rU+4p2+3CFMRE1JXq6uqwbds2rFy50u1n27ZtqKur6+oiU4ewYo2vL3xXWTXf27Bjji/WlHZJoYioXYR66+tr/7SpDpeuEZebjR01HVZIInJJuC471l1n3xNRd2fLm+3htdVVPReu8bPzbN4vIBG5ID4vaz9zdkCujaVr4Ou7BtonavcU9+4Oz+MdRX0uEc5PjvvH+w3qeTrgXrpmB2Z75dnZedn06yif14nuJF2TgpiIutz+/fvx+OOPY968eW7nPXz4MPbv34/p06d3QsmoSyz/I3a8sBlT/bu6IETUPjbsmDMciY/uQd0mo/id+CC3tw6vhHqw/NqliN5Qgc2xhg4uKxER0d3ChiILkL4IKDhsw1ReY4nuSOmq+2nhvnv4qsGo+73R1WJqNTswO7gAk8rF5+7SrUjclY49da+gDWvxvinrUbFpKuSzU+ka+E7wBTx6hiCiDqepo7a82RgevAaDu/rcQUQeYQ9YorvU2bNnMXr0aI/mHT16NM6ePdvBJaKuFD0FSHxd8RYvEd1hzqJqF5D+c+UjmBEzN0Rj6f94/kb9Y4PZMExEROQ1pVuRiEmY+fPHsPvlre3oIUdE3Y8BU+elA8sP3H6dnhKIwd4okjeFvoKKDdFYupbtA0TdkWH0JETjS5xlL1iiOwIDsEREhMfm/RbpuxLxqou0ZtZV+ilPrKt84btqhyL16RpYVama1OmYVClU5vChjsg7BiNwChyCrYbYzeo38+U0w8JHSD8m9p7dBSydYE+BxrpK1I3V7MBsp6kC1ekS5Wk1OzDbdw3WrLJ/L1zD1yjm16Q00z1nwJ5yLW+NapryvKFKlaoqL9Om0d3D+j9LEW2KhCF0LNKxFAe06QWVdWzVAfU0Zb2ZsxVV8gRxqJBVa1SpS51ftzVDFChTnarqOOsmkTfoPzdbsSY4EbuxG4nBs7Fjzxr4TlgK7ErEcOU8utd2xzrf1mfwtjIMfgzYVQW+hk93E1Xd1aQF9+TZWFjeXvdcLuPq+u+G7XABdk+ZhEh/cT2qdVuxhtdzom6FAVgi8gq9cUPoTmLEK3vTnb+ZX7oGE4+tR0VdHerq6rBn0W4kvq+Yc3kB8FYd6uoqsH7KUkz0PYCxdXWoq9uDdCzFH6VG2NI1GP7yY9gjrefRRAzvtPFuiHoyA6a+tR7RyyfqBz8AAFasmfAl1pcL9a9OrvMGTN1UgfVTgOgNFULAlnWVqBuzYcfriXhsr1iXy9fjywlSY48NO+ZMxJcbKhTTlI0wS/HlEGGanFZw+ZcILFdc3+WMGM7OGZLdSDw9VjFtOF7FO6irq0PFhmjFvEKjs1zevY8hMfj2GoaJ7gxWHFgejUmjDdDPSmHFmglLkS7WjYohX2KpPE2o55Dq8jxg6S712pceCxTuzd1ct215rwpDFNSJ9+rHJoqBHW0df4wZcYg8IgzdgUVjHdN/On1uNuKV8vWIRjTWl2/G1ImvoG5vOoB07KnbjKn+muv33nQsnaAOoqjqPOD5M3h7+Aeyhx3dVWx5sxV1dw/Sl0+0P0978GxsXeWLidiDOiktsMtlXF3/dexKxHBFW+vwlx/DHiklcehYpO8qQJFUV0sPYKkUnCWiboEBWCLyirq6Opd/0x0g9BXsWbQUE/WCLKGvoE4ec8KGs8c00xf9Vhw/1oDBj0LxMCr0ypNY/2cpojfMlB9UjS+sR7RO6qaGXg/g97lnnH4aej1w+/tL1NP4T8Vm8QFPCH4M17w9b8Qrdfaxnm1nv3S6Kk/rKhF1HTk1oP9UbJYae2qKULArHb+Vxpn0n4rfLtqNgsNSI6wUDFKQr+HA4CHRignuzhnRWP+CeJbwD0S0Yt2GwY/ZZys9gKVT1mOmFPANnYn1U3R6AhL1NKUHsFRRvwyjJ6mvpaUHsBTpGCvWDUPsb5EuTaspQsEuRX0NnYn1intqAELPWvHfbq/by/8oBnIMmLpJOa6j4qVK1f0+ESktnaB82Xw4ErEeFXrjv7p7bnZGt84rr9/qOg/A42dwInLHhiLLbkUdE16a2m0pgg3CNVb5woXx93WqLFMFr4vBV8V3Lq/Lrq7/eqbYX+oQXtAAJsq9XI0Yq7jXlzNv3PYxISJvYQCWiLxGCroy+HrnEm4KJ2pSGUKTOvBVFLRr7cIDqBQU8vX1hW9wInbrvFnbp/UKlswaqbuWJbNGok/rlXaVgOhuYYjdLAdil6p6xtkbj161OFva87pKRN4mNJp+edZVrxWx1zoUb8NLqcdqqrAbSzFR8Zb8xOXA7tPtSSLo6TnDzVrOfql5c19Iee56H4nudGIPOUVmCuFaau+VZjv7pWb8R0XQpKYKu/EYBss9WMQAi5NtubpuG2I3o2IDkBisTYlqxCtiLx9nKReJSCD1VJM/zl5WaO9zs0Od72LdrTxEHeosqnYBjw3Wq9XCNTZ6iLPRmndjN6IRLb/oZF/G2XXZ5fXfE5oXNIw/TxeDxTacPabzsiURdSkGYInIqxh8vcP5T8U7G6KxdK1ynCnA+n4idi+SUpdtxm+dNgC5IjQcRUtpleSPvXeNkl4QlsFXIiccxn4RqHuhbUXirnQ5DdLmeY9BX9vqKhF1gpqz+BLRCFQEY6ZukurmHvs47v6BiIa9nssfvV467nh8znDNMPgxxzf36+qwOZaNQ9SDib3RtXWxQtGjxnGMRaEBGIBO+k9XPencX7elF7McU40b8Yo0f7mTFzGJyGPtfm7uZil/rf+zVBMgIurJXL0AKVxjnb/MGI31b23GOxuguLa6vi67vP63h5SGuLQIBWD6YaLuprfvUk/zYRBRd1CX3q7IF5HHDLHvYL1F6J2SPk8x4dhZ2GCEoWYH/rgcwKK2r9v483TsnrAV1lghVaItb7Y4LsYrjuPnwB6EXbzlCIOvRK6EjkX6rokYvmqwItAijU+1R1G/hIYdo784zUmyo7bWVSLyFgMiTdFIfPlV7BhtD55Y30/E7inr8Y4/AFixxncisFdKIyq+NT/YAPhHYtKU4fhj3kwxwCnM++WGCmwe3Z7yeHbOcEk8P20tnSqUt2YHZotjwtrToBL1LLbDBdi96LfYrPneMHoSol8uQFHNVEwNHYt0TLTX19IDkGuZfyQmTUlE4vtWTP29UQzoAjDpb8/VdRur1KkRhVTjg2Go2YHZwQWYVC6ea/wH4zHVix5E1C7teW4W63zBYRumxhrEl6Cisf4tA9DZIzOXrsHE5UD6XqYkp7uFeP9tKYItdioMsGLry7sRveEdGAAYfp4OTDgA6++N9musZRIq3lKsQWxHezUvEptjDa6fp11d/z2hOj8AUhriiRN2A4v2ONx7EFHX6t3VBSAiou7GgKnz0pG4a6n8jfGF9YgOTsRw30Rgynrs2RCN3RbhwbJNQl9BxYbZGO7rK34RjfXlrgM6fVqvYFXcQwCDr0QuGPFKXQUC5wyHXL0gvnUbqxxLaikSg32RiGis37se0bsKxOCKZnXtqKtE5B2G2M2owGwMD/ZFovTllPWokNMdGvFK+XrMDvaFXN0X7UFdKCD0jN2DKt/h8H1ZMS3WALS1V42rc0abVuRY3ugNFQy+Ug8mNNym79VpAtUEVoW6IdbXKelIl1MQSnV5InyXA0A60hcBTkdvd3Xd/n0F1qvuD9Kxp84IwIjNe6vgqzjXRG+owCsMwBK1m6vnZoNU/4N9UbW3Dq+olnS8fqfvreuc7DO7xPLKorG+vJO2TdTJlk7wxVLlF9I9duxm7Dnta68L0v0zoHONTceeuqkw1OxQrEhsR5sgvkTp8nna1fVfh0MddTw/GH+eDixfivSf84mdqLvphVcOtHZ1IYjIc1IP2H79+nk0/6VLl3S/X7lyJVauXOnxdhcuXIiFCxd6PL+nKisrERQU5PX1crvdY7tE5F2sy0Q9A+syUc/AukzUM7AuE/UMd21drtmB2cFV+C0zVvVod1ubck/Zbgf1gP0Zjq0egOE6Uyr+cRCPftgxW22bQfj0rSF44vxp+Kw73641mBdGIPyMsD8pSU9h1SP2w2nfz0H49K0AYN9n+FWRd0pO5A2DBw/G4cOHMXq0+3x0hw8fxuDBHP2DiIiIiIiIiIiIqLtwNvQBEXW9Dk1BrA22piQ9hVWjnoD5wy+Q0JEbdiIl6SmsGnQNv3/9f7H6dlf2/BOIxwX0+lD496pHbiEn5TNhv55/Aq2jnsKnX3+GXxWdx6/2+aB+/L8ipcgL2yXyknHjxmH//v3YuXOn23kHDx6McePGdUKpiIiIiIiIiIiIiMg1G3bMGY7EXdLwAkTU3XTqGLCr19UhfvUAhD8PoFv0gm2vQfg0+Af4276vhD8//EIIxEo+vIqKUQMwcKD4d9H/Im90BOKfB1bf0ftNPYmvry+mT5/e1cUgIiIiIiIiIiIiojYxYOqmOkzt6mIQkVOdGoDVo0rde+Oyqneq82nqFMfqdL9D8MTVBsDQB30BAA3ISfkCCc8/Ia6rL1a99a/A6/VyGcwLIxB7RZGK+Pkn0Bp8y3lP2UgfPIFreKsNKYUrrjQh/qGfAfjK84WIiIiIiIiIiIiIiIiI6I5yT2duLCXJF8PRgGKpF6icuvcgeqUcRM7Vvli18Gdupg3Cp28NwMATp9Er5SB67bqMgaOewqeR9u30NQB5KQfRK+U0/najD+IX/gz48Av8/kSTQ5AXABLONKDvIB+kiH+bH+qDy+frnaYLThlxH/pe/c75dO1+Alh99BouG+6Hua0HjYiIiIiIiIiIiIiIiIjuGB3aA3b4qAi0jlJ+04S/7bKP/2p+qA8unzgt/51w+DJip4hByof6ALYL9mkrDwr/jvxXPHFvA/Kk3qpiet/YEYMAsUfq5RPScudx+uoQ9wX98CoqRvni2UhgddHPEG5owheHzzvfrwd64/KVBv2JYk/bin98pjPO7Q8wJBJyOYmIiIjaIigoqKuLQERERERERERERG50aABWmxr4l1fr8Cs5+DgIQ+4H+hqGoHW1MkjahCGRg4D7gcvndYKcA3+AvuiD+NURiFdN6APASVDUra9QbBsgBHHxQwy8cQ057QmSPv8EWkf1Uey3QtF3+HrKfe0sH1H79evXr6uL4FJ4eDi324O3S0RERI54XSbqGViXiXoG1mWinoF1mXqyu61Nuadst5PGgD2PX73eB8dWD0B9UoM41qrQO/XyecXYqwrm0UPwywf6OK7q61u4DCAv5QudHqaD2l3ChDMNiA/2gRn3AeernaYXdur5J9A66gf4266DiiCzQuQPMRDA1+0uIRERERERERERERERERF1d504BuxXePQfDej7SIA8XmvCmQb0fWSAPC5qStJTaF39BMziNCjGTE1Jegqtb/0rUorq8cWNPohNkoKtP8Ox1RGoT2p/8BWAkIb43r6If6Q3vr7kPP0wAFRcaUJfZXA48l9RP6oPKv7xmX7wVXYLp5l+mIiIiIiIiIiIiIiIiKjH6qQesKIPL+BvwUPwyylPwFz0BRI+/AK/7/cUVsnphBVjxDpMa0BOyv9iNYDVr/fBsdWK1MW2C+i17jzc9YBdffQaXn+kL1atfgLDUy5opgppiIcbGlCsTR+st57xP0QKgNUAUkbch74A+mrGvL18wt67N2XEfehrq9PptUtEREREREREREREREREPUUvvHKgtasL0V2kJD2FVQ/UodfKr9zMOQifvhUA7HPX41U5/xAMLNcZG5aojerSHwXQ/cd2JSIiIiIiIiIiIiKiO8fcZVvavMzGtFle2/5/ZO1EM3rjnl690EszrRVAC1pxT0sj1i54zmvbVNr+5+w2LzPtxfm633duD9hubRCeHdQbFeXugq8AcB6/Kh+A1tE/A4o8mD/SB0/gMt5i8JWIiIiIiIiIiIiIiIi6KVcB1eaWFjS1tKK5qRlNzS1Iydru1W1fv9EI86uT0ft7+iOo3mxsQuKqPK9uU2vCrxNx7foNt/Pd9+N7sXfnelTVXkagX1+H6QzAAsIYrlP6oq/tAnp5GiT98AvkLIzAsee/ctOrdRA+HX8fvtj3GVZ7oahEREREREREREREREREnaW1VQi+xixYqfp+wEDXQ4O2VXNzI242NuNHAHr1UveBbWpuRmNjC5qbbnl1m3ru+/G9AIC9O9djwq8T27UOBmABoOh/4eNRKmG1hJUHPZjrPH71+vm2r5yoE9TW1uKjjz7CmTNn3M770EMP4bnnnoOfn18nlIyorcpT6FkmAAAgAElEQVSRacwANuZhQUhXl8WNMjP85gK7rQkI7eqyENkKEW86jyTN77E0OxbRucK/UzX1ylaQhpFLjgMATIvXIWeSQXcaEGX/nZeZ4Te30HH7cRmonR/suGx4Ao5kRUFYs1C/V0jLqKZ1jtLsWETDXlaiO5mtIA0jPxnb6fWo7WzIT06C5Rn1eYaIuhjvZYnaSHMvqyTd19oKEW8yw6JznyvfI8ep70XV992O9+UqZWb4vTtIvW7x/lx9r2+/9iadTmrf/W+nnSOcHNcueFZozz4Lz1tRPJcS0R1j8u+WY8f/fRVT//MdTIsep5q2ffd+TP7dcnz8h0Ve2VZLcxOuNnyHW9//vsO05pYW3Lx1C60tLV7ZlivXrt/Aof1bMG38s9i+cz3GjJuFQ/uF9Mxjxgk9hKUgrTMMwBLdxT766COEhIQgKSnJ7byHDx/GRx995NG8RKTG4A11S1JDD6KgOrOXme2NAWVm+M01I0JqGLAVYtESYK0lDzEoRLwpE/lhyxBjEJYbuWQodluXIRTi7z5ZbOgJSUCtNUGz7QMwTQ+WtzlSWq9BWHZk9oOonT8A+ckZKF+8DrWTDJAahYRpHVmf7qCXOoh6kDsnOEx0d+G9LNHt077U6GgYTDiAg7Yo4d4aAGDDwU+OO8xpD94tE4N35cg0JiEeToKw/oNgKlav21Z9CqbwYVhRVI4FIWLdtn0OS/EwmNINwOn27mnn0gsgj0xGN7+XKMfB3CikxhXiYFkCQrvl8wafh4hI0NraiiYx2CkFX8ePCsKtxiY0NjXjUPlpDBg4CBvTZnktCNsLQHNzMxrv6SWXoaW5BY2NTWhsbsbNW01obm687e24s+VP/wfz/+UWWo5cw7Tx07B9nxiM3fdXt4FXSe+69Ec7uJhE1F2dOXPG44Dq6NGjsXPnzg4uERERdQbpjfnUuChYctXTSosKgbgMoTEnZDLWhifJDQO2kgOwhI/FcgMARCEpzox1JTbETDIAIQmotdrXExoZBeSeRxWgafywIX+pGVi8Tm4AKi0qhEnxd+j8PNSKc8dk5SFGXtaAiGeGAZ+cgw3B3bhRhYiIiIioLYYi+OFCWKR7awDABVQVC4E6uaenrRDrcodhrUXZczIYCzZGwW/uxyidpNOj0vAkTOFmVNVAvDG34eAngOmlscC7ivvqmvPyvb5BcT9+5zAgJisDVcYMvF8W1XmBQ81zkDu2gg+wIm4Gjgw5hZHvFuKFbh0sJqK7WXNLK5qbm+UALCD0dh0b8jAaG5txq6m5c8rR1IzLV65hc+FnsF1tRK9evfC9H96HmcvsY4O2tLSgpekWvtfajD+/Occr2/3llPnI3pWN+TiLe49sx7Tx0+Rp0viw7gKx+qPYEhERqZQj0xgLP/GTWWafYitIk7/3Sy6ETZpQZoZfshmZybHwM6Yh/1gh4o1pyC8wy/PHF9j0NiYrzbZv08+Yhnzl7GX29fhllygKpL8dZTndbVdcEfKTYxFfUGjf9+RC2GyFiNfur7RNebXC8cosE45PdC6A3Az4ZZfLa6/SKU9ptqZsZWZ5G6XZsYjPNgvbVh5novYImIEj1jwsiNROsKHqJGAaMkD1bXm18IurOn0cePhBVQOB5fQF3U0Igdwwxwagso8xrzgKSXLDUjkO5gLBAV5odmhL/S8zw89oRql2WZsN+clCOrMVc5Xnu3PIT9aej4TzhMM5MbvcPi1bLIui/hN5nfLa5PB7s6l+u+8rerSUZsfCL7tQMd2MUtU1X1FHXPB8PdK11aZZtlzsCX8cKDZjpOo697njemyFiFeVTVEXxWmZ2Y73LER3DKd12sn9qThVvy4qKO+flddEL93L6u6Ks2cFp88XOtdP8Zqdr1iXq7rt8vlEZz3KZw6PnnMcNqj8/6V+ZlE9zyiOn7fOv9SzRERGwfLJ54rfbAlWxIUhQjGP9EJkhPbWWcw4o5/O1oDAh+339EJgdygCQ54Ue92K664+Jd/ry9dn+d9mxe/T+e88UzvEm2790N5D28859r/FeTXnQ/fX9QEIDFfuq/fqodP2CcVzhbtjJfVqTo0MhiFsrNgzWXPI2nzedH/ec3zmsf87MztNc3ycPQ8R0d3ks4pqWI+fwxcnvsaRUxeQNm+m/Pn60jVcvHoDN77r+HFYAaCxsQmXr17DiZo6bHz13/Bu6vP4c/p0bE17Xv68//oMvJf+Iq57sUxBjwQKQdj/9wMAQMuR7fK0Q/u34ND+Ldi7cz0A4LNPt2DDfy12WAcDsERE5IbNngLUmodaSwLK54o37HLK0TzUWtdhLcwYqWz0LS4EXspDrXUZYvoDwHHM+2QQjojrwZIk5zfzZWZEn0wQ5rXmYXfccczbJq27HJnieDW11jwcGXJKM/bLccw7HSaUd2MULEuSsAgLhHkXD4NlycceN2hYlpxHhDUPtdYMpBabMXIpsFwsv6nYjPfdPIwYJi3D7jhoxuwphEUsj1C+TOTbhB6Dygfu0qJCmJ55Ug52WXKBJGseavmGLN0mQ4jr3qP2YKjQWKOkDM4GDhnmuLDYuBudOwxrp2tTFdqQ/24hTIsnaxqHhiEQOi83OCjH+0uOq+qFo9ut/8Kb86nQpDTLPQCkK85HSwthE3vkriiyN4xLDSqSFSfFcx7TNlKHEXqVB4vXxFpLAky5H8iNfbaCTMyDdD2dAeRqUhnKv+11WBteiGhjif26h0Ks8+ilJS+sJyQBRxYPcxi7zX4dFtebXS725CnEQekabPscluIoRMg9XQpRPkS4b2HaPLrzuK7TAGBZcgCBFif337lmVL0kXa8KES1fU8uROfcU1lryFNdI9/fEbbmXdaB6VsjD7oelsmqeLzZGYcVcdZDC8fpZiHmnZzid3/02Ia/HorgvWDE3FgcjpeMFrHhXPF5u1yMpR6ZJ8f9r41DMMwnBDltBmuJ5JgOpuRnqYLW3zr90R1gxVxm8cxJMDAlDqiIgV1pUqLqvBPRfiPSE6llTDOyGwoDAh4/DUmJ/2VK7PVnuKfG8o7wXhmL4EuG3HHiyULGQun4cWQyxfmjuoctKUB6u/ntF+FhEGBzPh+Vz3b2cIDy/SC+Jeq0eumyf8PBYAep7FkMUkuLsx1/ajkfnzba0y7h0HCswQ3G9yUBmmZPnISK6q+R89N8uPyeqLqD+aoM8vzfHgAWAW00tuNXYhJvfNeJmYxOuXruO5sZbuHGrGU3NLULvXMXnu8YmNDa2oKXxu9ve9uXLF9Hc0or6b6/hb7uy8VvDKVz/6hCuf3UIV/OScfLkV3jy6RcRHfsb+TPqFy8CAE6eq1OtiwFYIiJyTRoHJkx8xDNEIccqjPmo7uFmQMxLUUBuieKBSNkYKkh9SWxUNUQhKQ6KwIVGSIIi0Cj0ypOVlWCFYt2GSTOQqlpYEfjxHwQT7OU3BAxt0+7bA0XCm7Ry4MfwINofTlH0/vMfBJP0teqBuxwHcxXHHdDvTUjU3YQkKBogNY2j2vOJ7DjmvSu+3OC00UB8Ezs8Acv1xraSea/+q8TNkFMkKwPPhrCxMEnnPYcgENwEi4m8wYCYLEXjWM15WORpwksB9t9hMF5YrHlxQv5tiy9cyNca4brnMW+tR8N+HVa+EKJuuLWVHIBFdY3UO88Q3Slc1WmRor453H+HJ+AFcdnQ6QmK3lXBWCDewwNiT7d2c3Ivq6HNhhE6Xwyoau8HQiZjbbg6COF4/VRc33XmV25T+aJX6PQE+3VaU3bhvsB+3VZe352WXUvzXGLvhah//lX1buyg8yZ1T9LLw8qPY2ArGBFxx4VUweLzYKC/lwrgPwimYmF4EFv1KfmlytDIKDFYKYxLqn1+lzm5F9ZtE5DoPrcLL1AZAoYCJ8/BJpYn+KUZSBX/1r6ILL8YYYhCjtNevnq8WA9dtU94eKwA4Z4FynOUzkvYHp0329Qu44ri3HpbbRxE1JNsTJsFAPjlqBGIf+4XePPlGPkjTZP4/uTHAODV4GtLSwu+uXwNNXVXUHPxCmoufQvbpWtobWnG9Zu3cKWhEd9ev6X6XGloxOXrN9CiSJd8uy58cwkA8EfbUNVH8tba7fLHGQZgiYjItZrzsGAoAh3aMfVTlbqmfoCUH0b00gqpvstUNTzZqk8B4YMQKH/TUxophAduS4kNsJ1DuV5qKaJOYE/Z5di4oEw5XHVa05NOSa9xVBxXSu93Lb+codtoYEN+cpLQi09u+FCn4PIstXgHUPbEqzmvCQIRdQ5VSrx3TymCIRdQVaxO8X1bLyJ0I8qXH1z22CG6Azmv0wLV/bc2AKrsGadqTFemI4/Fok86pux2Lp4VnD5fuKKc3zFDh3KbliVJ9uNnMsOCU6hq022C5885js8lEsfzL5EnAoeILxjJvUAdp0uBS2dU6Wil9LOGJ2EKP4Uqmzj+q/wCRBhSc0tQajuHct3fsis6dUVxTnJeP6B4+VgoT6D/AARC+LvqpBRoNCAmS3w505N04A5l8mI9dNE+4Tkhm4/qHDW3EJAza7XnvNmedhkiIvc2ps3C3/5xFKfP21D1Tb3uPDdvNeNmY5PXt93S0oLTNRdxotqGk+dsOFN9ETXfXAYANDU1o7G5yeFz69Yt3Gr0/pi0v5wyH7+cMh9PTUiEr68Pkl9bjeTXVmNg//sxbkyI/HGmt9dLREREPYv/IJhwAFU2IFR1s69M7ePpA434Nq84uxy8MUQhxxqlmrM02wyLItVZaXas/JBjCBgKiG/vCqsSHqzwUpv3rtsJjYyC5d3PUYoDwDML2HOOOpl+g6bUaBE4ZBhwWj3N+cO+2ODxkv1XXFpUCDycofldCy9QVGkXlxtrxODrwxmanifBWGDNwwLlMl0SgxV64o0sKkcECpEamdAVhaC7ma0Q63KHYa1F7NlmK0S86YA4UahflmobECL22ag+BWBQV5XWewxPwhRuxsGyMCA3ChHzu7pARF7isk4LVPffYg/ZJGniyXOwQRxqwHYO5YBwPRXHYN8t9R4rM8OvuCN3xMWzgtPnC1dOKeYXXxAbor9N0zPrkKOXLaPGC2XXzunwXCJxPP8SecIQNhamJSXIRCFMz6yDAer7ZGH6ARy0Rcm9LAHI5wqTZRliJi1D7SSHNSPw4eM4WHMBKB6qCOwOQGD4KVSVAHhmchufP3XqiuKc5Lx+AMLLxxlCeTAWLxgMwDPA+yWfoxxjsVzxwkVMVh5iAAgvYGZgUcGTyHHYP+k4fA6L4hnEW/WwdJvz9gmPlZVghWaoBWld0UXlWBAS3I7zZnvaZYiIPLMxbRbmLtuCX44S/g78qY9q+neNTWhq9n7Q80c//D52/v0L+e+W5ibcuHYF+N73vb4tV342NED+95fHTsj/1uvx+vL0gbrrYA9YIiJyzfAkTKpebEKvs8wyIVho76UmjO3oLk2unHLYVoh1uXDdY0V6s1ecVxYSphmPpUQzBmwnMzyIYCiO0e2UJyQMqcVmRC85zjfmqUuERirGhBMba+W0YWFj7ePQiQ3E8tvzZWb7G/YAbAUfqFPyiY2ljnVeTCUqpRaTxokVU4WVZos9X709hqr/IJhgH0PSVnKgnW+yS8clA9HeTBNH1CZSukKxgVD+Xqhf9nEehVR8XUdsJJRT7ZXjYK6bRVysK+KZYVgxNwMr2txjh6i7c1anRa7uv5XjR24zazJPSD1BxeUk3ryXVVA/K4i98pILYdM+X5R9jHm6QxQoeTa/6j5G2qbR3ZiRbSi7dkbxucQ+JnUh4o1pyLeJ51/F+c79OPZEkLOrrNAORyNPF8YNlcYaFghjpVoUqW/1hEZGobyoBOWqZ3YDIp4BLJ+catfzp1BX7ONUlxYpzi2a+qF9PggcMgwr3v0A5WLPfUPAUJR/cgCQ64m97UEgvNjgvJzicZBTsXu5Hjprn/CQNrWyRHm+8fi86Wm7jBefeYjo7uSqJ2xjYxMam7wfgH0vPQ7blsTLn+1LE1GQ9arXt+POlavX5Y+SsudrF/WArUSOKQV424L4EV5a5cV9yJhdjPDNGRjfv5uVjYioRzMgJisDVcYk+C0RvjEtXoecEABIwJHFaRhpjBUmhLsLkgxDKj6AnzFDXo/juDeC0OkJMJnMGGk0A+EJ2L14GCyfSG/0B2OBJQHxJrFM4VFI7dIUxMJYMiOXiOWJS8BaRY++0MgoYG4G/E4m4IjbXrrBiIiD0JvH+fWbqOOEJGB3XCyijULjSerGPHsDjSEKyxcfwEhTLOZBqMNyI0+I5nyAYVhrUY7R5LynumHSMhxBmlDfASAuA7WTDLAHZ8z2aQAARQ+e9jJEISnOjOi5sVgBwLQ4AamQehgJ9TB6bizKF6+z9ypyui6hJ54FTBtOXUDzW07dmIHU3Aw544Rh0jLsPq2o03FRgKtxyzqY6vqOKKxdbO9ZL/TqMWOk8Tx2Wye7XZchbCxMOK5oqCXqAdzUaQAwxQHrjGLvK+39d9xQVJli4QdAuF6KPa1CJmNteBLmmWIxD8OwdqMwPqzQm8pb97JC1oqql8SxLR3uDezl0T5fpG7Mcxk4AqIQfDoJfkbt/O62qb0f8ZDTsmu2Jz+XSMdcUTbx/Ot4f0N3oxVinVbTu6cVgoZwcV8ZOj8PR4Yof5/Cfbnb35f/ICDXDCxWX2MNAUNhKQaSsjzaFTWprkjPB3FRirTo2vqhro/SdR/PDLCXr/gUTOkGJ8tDqEeK52SH4xqnzppj8FI9dN0+4QHp5VWLztwhYUhFBtYVTEbOJM/Pmx61y7h85nFF/Tykm1WAiO4ayp6wTw239wptbPbeeKueaG1tRWNLC9DYhJaWVtX3La3ALS8Hgx+4/8cO39kuXcWQAP3ernp61dXVtbqfra0YgO1I9fszMPNgOLa+OR4+7menHqpfv363vY6FCxdi5cqVHTY/kYoyJRLv3V2yFaRh5OkZmnSrRNSdlWbHYt0QNk4Qda5yZBo/QCDvLeiuIQT/LE5S7JZmxyIa2pT9PUCZGX5zcfsvXxERERFRuwlB2BH42z+O4uknH4UUWCz6/Bg2ps3q8O2bFqzB/0n8N/TqBbQ0q8Oara2taG5uwfKcfPw1O+W2trPhvxa3e9lfTUnGww/6yn9zDFiiu9hDDz2Ew4cPY/To0W7nPXz4MB566KFOKBXR3U5ID5n6Ug9rOCPq0cpx0Nkb7UTUccpKsCJ8LI6w6hEREREREXUoqSdsV2lpbsHp8zY0N7fCWa/SVtx+r9yX/2MJTp6ra9eyyuAr0IUB2MpNJqTkiX/EroZlTpA8rX5/BmZmWoU/QpN1e3oKy8dgtSUeQe6WOZoD02v54rZixIHbPSgXjEhW9ri9uA8Zs7Ng1ZnmdH+cLePQo1fZM7ce+96YieLBMUBevrisuK9Hc8T9tGLmG8DWN8fjgnLbTo4XkZ7nnnsOH330EXbu3Ol23oceegjPPfdcJ5SKqJPYChFv0hlTS5S6Mc9peuQOI5VJk1aJiLqxMjP85hYKKdUZBKIeSehxN6/YyeS4rultV5odi+hcIZUhqx4REREREVHHk4Kwf//8WKdv+4c/+D7+vPt/XM7zox/+yCvb0gZS26tLUhCrU+gK81Yv2IqMcT5isBRyYLVykwkpWA3L5Co5YBn4sfidFOR0tsycIIeySIHaGL2yHc2BaXuAHMB0tR7lNgeo9kcMnkZsRca4CzrbDhDK6UEANqtUCjCLfw8WyqI6fjpl3hYgHkvq0byRgpiIiIiIiIiIiIiIiIi8657O32Q9rAetMEYYxV6aQYhZYIT1oBX1ACpL8oHYMZD6wwbNsah6xxb/QRN8FZcxLoixLzM5Gca8Q6gEgKOHkI8YjBGDrT7jpjvvATsiHha592g9qs4qpmnWgxHxsIjBUfX++GD8mxYxmKy37XwcOurZkbLvkw8CB7uYsTQL+eI6g+ZYGHwlIiIiIiIiIiIiIiIi6iJdkIL4AqpLgYBpekFCIehpjBjgZFkrrDDCmLcN+yZLPUeFZax5M2HKVM5rRPhFYEBNNRAaDvsaByAgFKjWW70mXbAxVFEyh/W43x/ny3jRiHhY3gZMr5kgJlnW791LRERERERERERERERERB2uCwKwQgC0uKYeGKENWgo9PbOqLwC6o5gakfy7DBj/mYGZf9gH45vj4SMuY4xwknbXPwAorYZ9jULAFNMcZ638OAtWxfitlZtMYjAW8HFYj/v9cb6Ml4m9cQExzfFrORgjpmMmIiIiIiIiIiIiIiIios7TBSmIfWCMsKccBiqRn2lP4RsUFgNI6YMhBBRNb+wT5xXXMC4ZychC1n7h26CwGFgz89XLmHKEv0eMQQzysU2cV0gL7MLZKmFbF/dhW57ie3E9cvrgi/uQYcrAvova/RECt6ZNlQ7L1O/fZk9J3D8QAbCi+J8elssJ7fHx8Q8AQgM6ttctEREREREREREREREREenq0B6w+Yq0uACA0GRsfXM8fMZlYHW1CTNNWcL3sathkXqvjojH1gUZmGkyiQvFYLVlPHwu7lOsyAfjp8Ug67Us7Hs8A+MdljEiebPUAzQI8ZuTkTFbTFEcGoMYRWphpaDJyTDOzhLKFZqM1QuMsB6sQj2C4COvxwS5ZG9bhDTI2v0JTcbWN4Wtq5dRlytmgREzM8VyxSYj2VlqZA2fx8NhzMzCTFM1Vls02xa3wVFgiYiIiIiIiIiIiIiIiDpfr7q6utauLgQRtV2/fv26ughERERERERERERERESk0QUpiImIiIiIiIiIiIiIiIiIeqYOTUFMRNSTzX/nL/jh97+H791zDxq+a0T2q//W1UUiIiIiIiIiIiIiImqXucu2tHmZjWmzvLb9/8jaiWb0xj29eqGXZlorgBa04p6WRqxd8JzXtqm0/c/ZbV5m2ovzdb9nAJaIqI3mv/MX9Pe5H89PDIPB534AwOWrDVi19VNUfX2JgVgiIiIiIiIiIiIiuiO5Cqg2t7SgqaUVzU3NaGpuQUrWdq9u+/qNRphfnYze39NP4HuzsQmJq/K8uk2tCb9OxLXrN9zOd9+P78XenetRVXsZgX59HaYzAEtE1EY+P/kxnp8wCtcabuIfR0+hqbEZjz48CFN+/gQ+/u8vMP+dvzAIS0REREREREREREQ9QmurEHyNWbBS9f2AgYO8up3m5kbcbGzGjwD06qXuA9vU3IzGxhY0N93y6jb13PfjewEAe3eux4RfJ7ZrHRwDluguVltbi3Xr1mHhwoVuP+vWrUNtbW1XF7nLzX/nL3j6iWG48d0tbN/7D5QcOYXZ0aPwwZ7PcPHba/j5qOFdXcQOZStIg58xDfk27YRCxBtj4ZdcCIdJBWnwM8bCL7tc/bfOJ7NMWKY0W3+6tI52l1OrzAw/oxmlHq21o9mQnxyL+AJ3hSbyIlsh4nXqgLIOSvVSXkRRh7W/V3X9Vqy3zOy2TquWVZ1LypGpXEbnPNPRSrM9P/8QdSWPr39ivdLW767COkbU2e7y+05PnwFshYiXzqnKfxO1ieZeth33tMrrpPNrplCv1dd24TuHbUl1oN2/6847hzhrP+j8e5h27LPYTnLXnmupbTqofUqvfc1V/XH2PCHVRcffs3ieUazXfbufk/Oitmy6x0S7rLNjJs7n5BnDoYx8FnFr8u+Wo7G5CTELVmJa9DjV58LX5zH5d8u9tq2W5iZcbfgOVxoa8e31W6rPlYZGXL5+A60tLV7bnjPXrt/A3p3rMW38s9i7c738t/RvT3rIsgcs0V3so48+QkhICJKSktzOe/jwYXz00UcezduT9e59DwYN8IH16GmsnP9r+fs1/xmL7G1/R1TEyC4sXUez4eAnQGocYCmxIWaSQTN9GEw4gIO2KMQYlMscd1xVeAKOZEVBuwaVuAzUzg9WbL4Q8aYMZEbmYUHI7ZSzG7EVIt50ACbLMsUxI+oktkLEm8ywIAqqM3uZGdG5UdhtTUBomRl+c82IsCYgVFxm0RJgrSUPMShEvCkT+WHi77fMjJFLhmK3dRlCITzoRScPEup6SAJqrQmabR+AaXqwvM2R0noNwrIjsx9E7fwByE/OQPnidaidZIDwcJckTgtGxylHpjED2OjufEPUnfD6R0RE1F2lqu4rxXvaZLh/LvaYAYEPA/OKyrEgRLpPvoCq4mEwhauf00uLCoG4DITinFe23OG07QdlZvjNje329+q2kgNAXBTwyeewTfLW/2fvshWkYeQnY734OyTPdfAzp/S8H5eBWqu2bS0Wfrrtcm6eJ8KHOf6ebZ/DUqyzfQ/a/VI1+24rSMNIZfuDk32C3D4gLmM0C+0XynnLSrAiLgqpuSUonR+smmYrSFO1XQDSyy0ZHdzOcGdqbW1FkxjsnPqf72Ba9DiMHxWEW41NaGxqxqHy0xgwcBA2ps3C5N8tx8d/WHTb2+wFoLm5GY339JLL0NLcgsbGJjQ2N+PmrSY0Nzfe9nbc2fKn/4P5/3ILLUeuYdr4adi+bwumjX8W2/f9Ve4d6w57wBLdxc6cOYPRo0d7NO/o0aNx5syZDi5R9/eD730P9/TqhYYb3zlMu/ldx6c+6FJlH2MexuKFyKGwLPlY5w2zoQh++DgsJcq34S6gqjgKqXFe2L4hCklxwIoiN2+luS0nEdkK0uBnMiM4LsphmtAgEyY8iIRMxtrwQhyU3mQtOQBL+FhEGCDWSUWdF4Os0gNMaGQUUHweVY5bR/5SM7B4gaoRyKT4O3R+nvjgY0BMVh5y5Ac/AyKeGQacPNfpvWCJuj1e/4iIiO4QBsRkZSC12Iz3vdiTMzQySn2fXFaCFXEzkPTwcVTVSF/aUHUSSI0MBgxRyLHegS9DhSTgyOJhWPFuZ2bG0T6XuFOO95cApulhCPby/2cit8RAZfDGPMeAoiEKOdZ1WAszFml7s7p7nnh4KIKLD+CgcrGa87DERSHVC8U2TJqBVNjbH7RKtwkBZWU9NExagLXhhVin2hcb8t8tRGrkZAQ6TAOqTh+3txhwC90AACAASURBVHmIQqcnwJRbwmcojeaWVjQ2NaOxqVn+bvvu/bhxqxE3bzXhxq2mzilHUzPqv72K/8r7b7yV+ylWby/C9354H2Yu+1D+vPDWB5iesRkvvrHJa9v95ZT5yP5/P8CNb86i5ch2TBv/rDzN0x6wDMASEXlg/jt/wfx3/oKG7xrxhw8+wf+eOC9/J33O2S7jDx98opq/JyktKoTpmSdhCAlzekMUERkFyyefax74whDRjcqpSq1apJggpjbJV6QhySzTT8UqvBlXKKdZEVKeKNOg2FOgaFNE2QrSxBRQ5cg0mWHBccwzKdO7fO64Hoc0sYr0UuK0zOyuSsVEd6SAGThizcOCSO0EoUHGNGSA6tvyauEHWnX6OPDwg6q3WC2nL+huQhXIVSr7GPOKo5AkPzSV42AuEBzghZYfKY1agT3lcXyBTT9tsjadkZyCzYb85AysALBirrJOnVPUeanOOqZ6sxWkiXVenJZtZkoj6hRur9PKVODZJfbv21FvPL9WtuX6xzpGJJOG93BIi+eYAlNV1zTLqe4LldOSP3Z4QUqVolBZnzTDCMjbbsu5w6Fsirrv8l72NvbXxf6pngFcla0NPB1KQS5jW48f9UADEBhuv88GXP2OPOQ/CCbFC5C26lMwDRmA0MgoxYvMQq/YQH/optnOzE7TPxe05xxSZlbth/1eQPG3MrVyG/bdEDBU/bKny3NMe89VTs6/7o4VILSFhI9FhCEYEbovkjs5N6Ad5xM350rh32bFsuLxKTNj5JLjQLEZI7tgmJc7Voc+cwJVOuspzdb8ThV1qzQ7FvHZZtWwYFKgckEIVL/p+AKbuC4g5qUohyCr+3a/METEqTtelBYVIjUyzAsH1h2h3SA1UttDVeflCNvnsBRHISJEeIFb1U4JIHDIMEAbbDVEIcdZz9u71GcV1bAeP4cvTnyNI6cuIG3eTPnz9aVruHj1Bm50UmekxsYmXL56DSdq6rDx1X/Du6nP48/p07E17Xn58/7rM/Be+ou47sUyBT0SKAdhAaDlyHZ52qH9W3Bo/xbs3bkeAPDZp1uw4b8WO6yDAVgiIg/N+XUEXpoyRvhMHoN/nyJ8Zk0KR1z0aMw0jcaLpnC88OxozIh6qquL62XlOJg7DKYwA4BgvLB4mH5P1JAwpCrehhNuxHTSdxSbMVI71oO7G35bIdbp3my1oZxyatU81FrXIfBkoWb5QliwALXWPOGN2rmxOBiZh1prHnbHQf2Gbe4BIF1Yz9rwQkQbSxBhzUOtNQOpcHzDzlEwFlgSYMIwrFWkYLQsOS+uR1xvdjlgeBImRS9E+82kvdzlQ9ah1tq9UzBR92EICXaZCsgeDBVSmSkpg7OBQ4Y5Liw21EbnDsPa6dr6KryJalo8WfNgMwyBUDbqODsflOP9JceFh0KnpT+OeafDUGvNQ+3GKFiWJGGRol677xko9kiAJiWSXOfzsDvuOOYtLYRN7JFrP88IadeV56kVJwfhiFXnzWMir3J3nS5H5txCpG4UfsNHhpzCCtXybak3bbhW6tK//rGOEUmETBHBYn2ttSTAlPuBB0FBx+XK50qNvlL2CeF+sfYlYIUiXaCtIA3RJxOEumRdh7UnM8SG3nJkzj2FtZY8xflBeT7w9NwhvHghl23jUMwzmVXnlbbfy7raXw2XzwDuyuYBeRgG8Rz2sBkj5RdFxKEUxGO0Yq4ywHu79yx0ZxPus+WXGZ3+jtqySuVzo5BK1BRmEAKzUrDBdg7lUkYbB8exAjMU554MMTDUlnNIBlJzxXOIqn1ALA+Uf4vX9DKzYnlh3x165mn5D4IJp1BlA7T1+MhiaOqxp3WtLedfZ8dKIAeyoNezTnNusCSgfK4yKNqe84kbuacQaNHcZ4k9iT0aIoo0OuiZU3GfLaw3E/k2oXe7Moio/H0BgCUXSLLmoTYrCgbxuWDt9GDFsB/C//uk00mIll5+DglDqlyHAE/b/dRlKcfBXGXblEI72v1sBR9gBZysz3YO5RBfHnHDVnIAFvFlcMOkGap2SsDeazb6dl54uQvkfPTfLj8nqi6g/mqDPL+30g9LbjW14FZjE25+14ibjU24eu06mhtv4catZjQ1t6C5pVX1+a6xCY2NLWhpdMxa2VaXL19Ec0sr6r+9hr/tysZvDadw/atDuP7VIVzNS8bJk1/hyadfRHTsb+TPqF+8CAA4ea5OtS4GYImIPDSg3wPw8/0J/Hx/ggH9f4IB/R7AT33ux4B+D8Dg8wAMPvfD0Pc++D7wY/g88OOuLq53iamLpEZSQ9hYJ6k5ghERJ6U3Em7edG+Owu0PV/JHe8Ofm6G+URPHeXDZKOOmnOoeeQbEvKRNv2rvlWcIGAoobvwcAk3ydsQAlbxe4U3m9rIHppSBL3UDtPJmUiDdJBN1AyEJigZMTaOA7XNYivV+r8cx711gudTwC70GJ/Et4fAELHeZ+ksR+PUfBJOifgj1up0U5xbl+UB1nnF4OQJugsVEXuLuOl1WomrMENJ7KbWl3rThWtkWrGNEIqEnh3zPW3MeljYsLb8EoezJob3+hkzGWvl+VQiC2OuSsidJMBYo0pPaqk9ptubhuaOsBCvCE/CCtE+aIQ5u515Wd381XD4DuC2be9qsH/JQCrrHXdlzqIPuWeiOJAzJYX9JsX3pMIVnSKFX7QVUFQ9FoAFiYFYItNhKDgBOr52K36ThQcivNrXpHCIEboQAzQAEhkvtAxdQhbFIegbC39pruiJNb+j8tqT6hZP7HPU5xrO61pbzr5NjBUAKSskZf3RfqFYcT0Uq6PafT9xwcp9F7dVR52/F78Z/EEzS16qXGZSBUpGyfUjufS30hFUO/RM6PQEmVYBTkZ7c03a/kDCkSr3Py0qwInwQAvV2xYN2vxVz1QHakUuAtZbb7YUqvOxhfxk82KHXrlTX5RcopGAxM+rINqbNAgD8ctQIxD/3C7z5coz8kaZJfH8itIF7M/ja0tKCby5fQ03dFdRcvIKaS9/CdukaWluacf3mLVxpaMS312+pPlcaGnH5+g20iOPVesOFby4BAP5oG6r6SN5au13+ONPba6UhIurhWiEM+i39F63AO5v3AAD+88XxaAHQ1Cy8hdPa0tqVRfUyoccaigvhl6uZVDDZ4cEocIgQKFwA4abviAE6Y0B6IC5D7s1iK0jDyCVDVSlLM40Zcu8d0+J1yJkEN+WEkFr1GUVqVf9BMOF8e0rX6QxhY2FaUoLS+cHA6eNuegIT3Z7yahsQYoCUkhhD7NOEt/SFulh1+rjzlYRMxtrwJFhKbIiR6m7NeVjCx2K5TntK6ktR9obfl6Iwb67wexcevmzIT07CPCjfztY5D3RG5iMtw5MwhZtxsCwBoTgPS1wYcrqgGHQ3c3+dtlWfAsLHKhpHhJeF2nV97mysY3QXKs2ORbRUn8OH2RtgXTIgJmsdkJyEkUazuKx43aw5DwuGIslgn9f+ot8FVBUDwS/pBTvE66/Y080U3r5Ge1v1KaC40F4ukekZG+BBTxZ9LvZXvXWXzwC3Xzad9UscjjuRkvK3I/zbkpsEvyXKeYbBZIN+cEP3mfj/t3f/sW3fd37HX3HatdiPA+hpdpaWctJiCDchgYPjd1olN4fdVTKMb+JbvkQN9yDXqGlf4RwuFCCcqsu2+OsA6w8NGsQUa4DFVOdFW40MZAsn3xmmisOaWCp0X3XJGrBgsHWBzTaIffK43u1Hm1jW/vh+SX75S6QkUrLs5wMgYH1/fr6y+PPF9/uzx6tOe+N6eTqgDyR5X+iV/nTxhnrfe1ePPrHOP8oNP4Z4XyR+rPT5wGf79UH4M3ryjXc0+kTgOX3/SX3wsvTAqVj5eqqrAtce043F2tc5G7exx99qXhXfu5JR33HrDxo+Jpf35PEETTyqA8dsvbR4Q1a/V8X+By3/Fvypfl4ObPj+L+UMfErfKC8oFU2s53O/veoduKQrb5+U3rgk8wsvaY8aT0vUSuV+7r/e+OyXms9JvefTerQUGK917W9f1DML70pmTM9UrbiopacahLt7DinlHvKrhW1NP0FnuZKXn/uyTn393+l3/6H3c+/fCdVt8+sPV/TRykrd8s26ffu23nt/WSu3vc/YP/zNh7rxF/9LknTr1op27bqvbp9bH93Shx91fiy/+/vPSpL+769/o/+29KpG4v+svG5osPUfS5cC2LxS5pgytYujCc2eHVb9f1WDI8yYGtOUnBORLozPl0vJHJemnLi6eBYAd4mV27elVT+Ivb2q1cBj/YcrK1pZua3bt1d1a2VFK3dTAOt/M/X1mm+U33jtOT32w5/oxlPVH3KUgsJplV6Ibf4D3j1PfV2vvxfTk4lP+R+qPKpRN63RqnFeajnOSounQBgk6fQmx7clyh9A90uvHNKBZ7d7QLg71bccliotiXsffkR6r3pd7XyxFfUfxiy9cUn6rF3zfqlJEFT+Jm3pzZhd02K00eNAs+vqpsoHSwd0SRNPnNyOQeBe1s7zdGCeNO/+590/9ZXtGPB6cR/DPebGJb30SqBFt98+sD1eRYclqRTO/Olrv61U/6dk6k1duyFF90jVX7Dynoed8pevAvx528uPL2+f0wMLWrc94c9IA59v3OJyU8/dTa636oPiPWu+B9j82Bocv+TB2t87EHDjJ3ICr5V7PyuZX3ipYeVn4yrYBq+FJe/v7ue/0NLD/0Pmw4fLi/eEPyPnjZ/I/PkG3kvW/S23+Rgi//OBH3rjmXjipLRfmvjuL5SpfU7ff1IfuN7PN157To+dOqcD7smmoerSG5ekAW99/eucDdrU42/5IF5r5doA2T/WlRuHZDV9bODxBM1Fnzgk57s/0ZLelL4w2ubfenVXuuD78RuvfU/fPPYlfbBHbb2fqCi9Nj+niVcekenskTYYwAaPaSVtXTNsxR9u/DjohdDyvsCxv7ogYenFmJ6U93mB102g9hjea4Qrb59UdP87mja+p97gVChSg0p2SK1D2N98dEu3uhDAfvITH9cPfvRfyj/fXrml//e//1K6/+MdP9da/t5nwuV//9ef/ffyvxtVvP7h0b/b8BhdbUFsTTpynNJtVgklNXImq2InT7KclW3ayi538qA7R37GlDmT3+5hAPeE2yurWlld1cotL2hdWVnVHx39PX31i/9YH95a0W8+uqVff/iRfnNrRR924clnu9S3u/Xs6f+8zJp5FLwVXnudb9a2RNmk6LO2JhaazwXTzjijTxySAnO4LL1R+43Uzut9+BGp3LbFezO2MX4b4lN28xYvQAdEnwjM7+Z/8Fpu59X/+co8SP4HFOX7+dvn9IBRmWupfv4W74Oa+upt/2+7PG+kP0+s38Zs6UW/8rXT8zs++CmZgdZkNxbfXFeLxyDv92LryWZt14Euaut5en9/9fzkby/WzAHbeZ17/uM+hntRpSXg0oVzgecn/8P5qrnXSuve0bQRC8xB6IUij4b3+K/P39UzF/zWen7wUzrmgS88Uj233IvBNnyl+eH86piN2N+viUB7Ud3w5n2fbtnmd4PXW2PN9wAbHlvt8RcDr4Ge8+aT83/v5baHb1/UMw2nYsC9x5tr1Am0v656DS7/78hY53zEknd/1y915T1V/63t79fEz9+Uow28l1zXY8g7+g8vBFoS7/m0Hl14Uy/9UP5z+F716k05P6+8TyjfZ0pHDH8m8GXMBt4+pydfCXTQ8V/nlF/XrzWPZEvNHn/b1GC6BEnl36GzeKP635KCj2cbezxZ67ES26qD7zlLz1dPvvBuw+e6Kgu/1DW/9W75flu63/jzLj/2QqVN73o/9/Nem18qtzrujEc1Gpj3thGvNXtpnnoFrqvUErpBe2b/2AeOyZ/Wy/+91Mz3vrnHjbvby899WX/25zm998sbuvYX1cneRx/d0ke3Ov8Z+L/9p8d04YV4+fbqv/iqXkv+ScfP08pf/tX/Kd+Chgb3192a2cIWxCENn51SwRxTJjeseN/WnRkAOuG3/uZf3+4hbAPvzdPEyw2CD78i85kL78g6WrVCB77wiKQ1XogtnKtr8yWpwbfUgry5ZB574bSmw7UtQdoc57Mn9dPnn9NjfisS89ihDbUUWo89T31JEy/YetK4JOkRfef5Q9IPa8ZmxnTt5ZdavhHe0/95mXp3jTl7gA7Yf1KvH4v5f7NeW6DyG7E9h/SN59+s3Ieef6nyrdH9/v3LiPkLHqmZv6V5xd2ep76un+q5yuPCMVsfPLVHlQ8Pah8z6r+du257Dun0sXN60m91Zj5/UhMqfcPd/3btqZjeef6l1lXy/n3ZWetxD+iKdp//HtWoc1Jx029tOHBIE5uYr7wd7T//pXWg5cG4j+EeUvP8NPGyrYlX7HLLvejRkzLN0vPiIX3n+VJ3itL9PKYHSsc6ZuuD/VKwssRrLXhIE8ekUsRa6jZT3cr3UUl79Z2B03rGjOkZPaLvvHxS5oJfgbWui6ofm/n8S97r+doPWd8+pwe++6lyRerGrtfrnnHtK/57hv1rvQdYx9jKaqpn6l4DHdLrrjd+7/deaSs78XLar6xb1y8Qd4FvBtrrSqqackfSmq+l1z8P7CU988ohvV5V6bpXvXpX77RdOVd9zHU9hpRfy0ul1qnffOWQ3z53j3o/+64cfak8pUDd/v61l+8qdZ8fPKLvOOlA9Vrt/bj2fUi7l7n24287li6ck3PMbjBdgvc5yTMveG1Qax8bzOdfUmq/JG3g8URrPVa2uOT+z8t84ZweM365+fdXqLeO95yp8FoHqmyvV1qEhPv7NSGv2nP0WVsTpfvtMVuvH7vkj+WQXne/7v9/t/d+4qcP1y9f87OpNT/3azb2w/7rjnPqbfT3uOeQUu6nNW0E27VXruXGa98rT4VWK/rEIenU95Q5+qisZ9P66cPB+5n8OWsbdMOApOpK2H/09yt/rB+tdG6+1Xasrq7qo9u3pY9u6Xag++Tq6qpur0ofdjgM/q2/9Tfqlt34n3+lh8ONq10bue/mzZtd6JPptSDWpFMTtBaVPTOihQOzsoe8cuXinK2RaddbHWhRXNuCuPF2wVbHhhLnbQ33+Pum/VPGqtsYB9dZMUuZdPMWxFXHCRxfkld5ezwpt8G6pudvts9yVvbxBQ2UjxH4/e311oVjUibtVh2z6nfiL6s69zpaPmPn2b1796aP8bWvfU3f+ta3urb93eTZf/kfdfh31vc1qIs/elsv/skXuzQi3JuatEoBsO2WXozppabtkgBsFvcxAAAA3MtuvPacHnvvSzVT8zTZ7oXPtAjVvba876xZCAFU80LYPv3Zn+f0O7/9D1QKFt/4yc/08nNf7vr5zdF/pX/+1S/qvvu8TpVBq6urWlm5rW+kMvpPL45t6jz/5l8/v+F9f+/3E/rsp/92+ectrICVpJB690nJwnVJISmX0sh0WFOOrYi84HJkprd+3tc1toufT6gQCC+Lc7bGriY06wwr5Ae+9pwf+OZSGktbfuDqrZM/W0idXCpwHD9UvZjX8ImIpLxSx5MKTzqy+7xtzeMp9Tpx7W16/utV+xTnbI34+7Sef9ZVRlNyHNsPa8eU6ncUH7I1VQgE1Q3GnJwzymE3UOuhhx7Sj3/8Y33uc59rue2Pf/xjPfTQQ1swKgBNvb3Y9Nt8ALaT3+rI4c4JdAf3MQAAANzL/PmFv9J6ap5Kh6lYw05zXkDrzVWcouUu1qFUCbtdbq/c1nu/vKGVlVU1qypd1earcv/wj17Qz39xc0P7BsNXacsD2Gr5xYyM0dlyABk5nJBxfF75mgB2re2qtyzKveLKOmL7VZ8hDR+xlHzVVXFoWNcXM1Jsyt/HX9esj0dfXM7ZynGvXZW0z/8xN6+MLE31BbZ1vO2yV1wZBxKV8591NCxJuUzVPqGho7KmxzSfiyuyt9VvylDisH+lPb1asyPBUrLc4jlywpHd6tC4pz399NP6/ve/rx/84Actt33ooYf09NNPb8Go7lwXf7SOiYCADlt6MebNa+G3YgJwh3j7nB44dclrV8idE+g87mMAAAC4l924pLjptbf+oM3AdM9TX9cHT71T067XN3BSP3W/zmdL2JBSCPujn/xsy8/9ib/2cf371//zmtt88hOf7Mi5aoPUjdriANYLMo0De8v/dtMjMqeD2xgaWFZgHry1t6sOYK+rsCRllky/LXGJpetV5/btDctQofFQa9oFG4F6/eL7BSk6oPrc1Dt/+Eh9xWnzfTqoLy5nUjLHK9dv1bWBBioeeOABnT7dcmY7SLQSxraLPpvWB8+23g7AFtt/Uh+4J7d7FMDdi/sYAAAA7mV7DinlHtrAjo9q1E1rtOMDwr1uK9oNN/KDqcS2nHcztjaAXXa1EAgoe/dJRmA+2KB8+V+hNbfTcvCHvQpHJetIk9Ax2P5Ykq4X5Eo62mDT/MWk3MD8rfkZ0w9jpdCDYWmpoMCRqs6/8H5R6qte03yfDuuLy3Hikvw2x+MpDbbV5hgAAAAAAAAAAADAZu3aulMVlf12Um40IcsPRyP9ltzpTDlsLc7ZMs1UIHxd33ZSSMYBQ5lXsyr6S/Izpswz3s+RfktKX1DWD23zi5m6I1S5es07znJWF9KB5X2DspTRfM7/eTkr27SVXfbO715xq88/k6/bpzh3QRlZGuyT31bY1cJb/l65ebUYWUPFObt8rZIf+kbD3a26BQAAAAAAAAAAAFDW1QrYzHhNK+BARakkqS+u2VFbI6bpLzCUOO9Va1aFq2tspx5DA9GkksdNFSYdxYdsTRVMjZhJf1tLU86wV3VaOs5xU0lJRsyS0WTs3jyzSe840YSmRg25V66pqIhCiih+PiH7uKnSiKxJR8M9kmrPH01o9qx3zdX7BK5BEVmjhkam/TbLsYQSUTVrjlw9zn5LGh+TeTWh2bO11+6do6sVtwAAAAAAAAAAAADK7rt58+bqdg8CwPrt3r17u4cAAAAAAAAAAACAGlvYghgAAAAAAAAAAAAA7m4EsAAAAAAAAAAAAADQIQSwAAAAAAAAAAAAANAhBLAAAAAAAAAAAAAA0CEEsAAAAAAAAAAAAADQIQSwAAAAAAAAAAAAANAhBLAAAAAAAAAAAAAA0CEEsAAAAAAAAAAAAADQIQSwAAAAAAAAAAAAANAhBLAAAAAAAAAAAAAA0CEEsAAAAAAAAAAAAADQIV0KYPNKmabMmXzN8qKyZ0ylct05KwAAAAAAAAAAAABsp+5WwKYvKLvc1TPsSMU5W+aZrIrbPRAAAAAAAAAAAAAAHdXVANaISslvEzQCAAAAAAAAAAAAuDd0NYANHzkqaymp5FzzCLY4Z8s0Te9WqgrNpaoqRGsrRotzdoP2xp78jFk5nmlXV+AuZ2U3WVe1X/DYzfZZzsquOobXdtlrr+y1WrZnUoF9U8r71zYy7UpLSY0Er7fZmAEAAAAAAAAAAADsGN1tQayI4pOW3OmMGsaluZRGpsOachw5jqOpfUmNzOSlvkFZSwtylyWpKPeKZCj4syurP9LweGNXE5otHS/mKnmxdOa8UseTCk9665zJsJLHvVC0OGcH9ptV4uqY7Lli3T6zoyrv0w43LR0tHTOa0dhMXuqLa3bUkKIJzZ4dVkh5pcYLSpwPjIuqYQAAAAAAAAAAAGBH6nIAK6kvrqmYHz7WyC9mZIxaKkWpkcMJGel55bVX4airwnVJuq6CBnT0gLyfl10tLFka7Gt8LufssEKSpKKuXQ2sy80ro8B+fXE5TlwRP9A1Dhj+fiENn3VkD4Xq9gkNHZWljOZz7V165dpC6t231paBoLjqGgAAAAAAAAAAAADsJB/bipNEDidkHB9Tqn9W4fJSLyB10yMyp4NbGxpYDsk4YCi5mFdc88rsG1T8wYLGFvOK9xfkxgZlNzrRclb28aRc/zhGtLKq+H5Big5ob91O11VYksJH6iPP5vt0UkRxZ0oyx2Sm/UWxKTknGlT4AgAAAAAAAAAAALijbUkAq55hJUYXNPJqRlZ5oVcVahyY9apNaz0+IOPKNeXDBa/dcJ9kvXpNWWVk9ccbniZ/MSk3EF7mZ0w/jJVCD4alpYKuSzXVpXsVjkoL7xelvuo1zffptIjijqO45IfIY0r1O4o3qvIFAAAAAAAAAAAAcMfqfgtiX2gooYQyyixVlkX6q+eHLc7ZMk1/jtWeXoWXFnThihTeK0l7FdaCFq42aT9ccvWaN3/qclYX0oHlfYPV7YOXs7JNW1m/2ta94pbnXc3PmDJLc9EG9inOXai0JO7pVViuFt7y98rNK7ORX0x5HP7PPb0Ky/CvGQAAAAAAAAAAAMBOsjUVsJKkkIaPWEouBWLKvrhmR22NmKa/wFDifNyfNzWiwZirsbSloz3e/r37XCV1tHH7YZVaHSc1YialaEJTo4bcK9dUVEQhRRQ/n5B93FTpbNako+EeSUO2pgqmt58kRROaPeuNonqf6vFZo4ZGpv0WyrGEElGp0M5v4vEBGdNJjZgFTTlx2ZMFmcdNJUu/hdFZxXvaOBAAAAAAAAAAAACAO8p9N2/eXN3uQQBYv927d2/3EAAAAAAAAAAAAFBjy1oQAwAAAAAAAAAAAMDdjgAWAAAAAAAAAAAAADqEABYAAAAAAAAAAAAAOoQAFgAAAAAAAAAAAAA6hAAWAAAAAAAAAAAAADqEABYAAAAAAAAAAAAAOoQAFgAAAAAAAAAAAAA6hAAWAAAAAAAAAAAAADqEABYAAAAAAAAAAAAAOoQAFgAAAAAAAAAAAAA6hAAWAAAAAAAAAAAAADqEABYAAAAAAAAAAAAAOoQAFgAAAAAAAAAAAAA6hAAWAAAAAAAAAAAAADqEABYAAAAAAAAAAAAAOoQAFgAAAAAAAAAAAAA65GPbPQDgXuW6btvbGobRxZEAAAAAAAAAAACgU1oEsEVlz4wouSRZk47ifS22U0KzZ4cV2shIcimZ45kW58krZY4pE5uS0z8vYBtvWAAAEK1JREFUc7ygxHlbwz0bOSGwfVzX1cGDB9ve/vLly4SwAAAAAAAAAAAAO0B7LYijhgrjtrLLjVZWQtpN6bOUiEqZV7MqNtsmN6+MDCUOR6S+uByH8BU7z3rDV0k6ePDguipmAQAAAAAAAAAAsD3anAN2QAMxVwtvNYhGl10tyJIV3exQQjIOGNLSgtyGQa+UX8xI0QEZhK64C9y6davtGwAAAAAAAAAAAHaGNgNYyei35F5x66pTi28tKHzEUji4cDkr2zRlz9Vs7S9P5RqfIzR0VJaaBb1ZXUhLxgHDa3GcS8k0a6ty80qZpszyLbjeXzeTD45e2TOmTDOlqqVzdmWZP2YzcGs2fmA9CGABAAAAAAAAAADuPm0HsNobllFXnVqUeyWswdo5W3sMDURVF9gW31qQK6t++7KIBmOSO52pCkSD+x4dajLD7HJWdml+WMeR4ziaHZWSx0shrHdsXb1WGdOyq4UlSSroWvm6inKvuFJsUJHlrOzjSWl0tnxMZ9JSpmk7ZqB9KysrdbcTJ040XA4AAAAAAAAAAICdof0AtsfQQLSmOnXZ1cK+QUXqNm7UTjgQbK5xmsjhhAxlNF9VZdp63/zFpFxZmjpR2SI0lFAi6ir5bW9e2Ui/VT2m6wW5UUtW8Lr8UNbqj3jrZWjg8UDoy9yz6JDaKtdTp05Jkk6dOkUFLAAAAAAAAAAAwA7VfgDrh6rBqtb8xaTC/Y0j0bp2wsFgcy1+9WxmMVADm8souWQocbhp/Kr5tBoEtKUguKDrktQ3WDWm/GJG2jeowX2SW7ju7XK9UKnS9bdPHq9tXQxs3q9+9avy7fTp01XrTp8+XbUeAAAAAAAAAAAAO8M6Algp9PhAoA1xXvPpNtoJ+4Ft6/bD5bNo+IglpS+U2/zmFzNSdEBGq6rT9FjVXK2maWpk2q0fU+G6pKKuXfUC4Ui/JaXnlS+dqxzkRhR3HE3Fao5NGIsO2LVrl3bt2qWJiYmG6ycmJsrbAAAAAAAAAAAAYGf42Lq27jE0EE1q4a2ihh+cVyY2qPgam3vB5oLcZUO64kqxo2u2Hy7rG5SlMe88j7u6kJasyWE1mf21zBidld1sjljf3rAhTc8rfzishSVDA38sSWEZWtC15bwKacmarB5l5IQj54T37+KcrZHpMZmaknOirasBGrr//vslSVNTU9s8EgAAAAAAAAAAAHTKOkvrKm2Is4uZ1u2ESy1/L2a0sGYL4VqV6tl8W5Wz1dW2QfkZU+aZbHl56PEBGSpo/uKC3FJVbWl+229fUKbFubx5ZSVdvVZ3LmA9StWt7dwAAAAAAAAAAACwM6w72fHaECeVXLP9cElE1qghN52phJ1tihxOyFhKamzabTC3a/PtR4LtgXMpjaUl60igetYPWzNpV9rX6y8PqXef5C7VnCuXkmmaSuUCJ/LnsjUOGC0rcoG1EMACAAAAAAAAAADcfdbXgliSenoVluS2EYpKpYpTV1pvYNljaCAque1WzvYMy3Z6lTLHZKZLCw0lzjsargp+vSpeLblVFbxeu+Saqt6+uJxJyRw3lQkcoZ1Wx0AroVBIxWLrOupQiL81AAAAAAAAAACAneK+mzdvrnb1DLmUzPGCEuftmiAUuHe5rquDBw+2vf3ly5dlGEbVst27d3d6WAAAAAAAAAAAANik9VfArlN+MSPFpghfgQDDMHT58uV1bQ8AAAAAAAAAAIA7X9cqYPMzpsbSkqIJzZ4dZr5UoMOogAUAAAAAAAAAALjzdL8FMYCuIIAFAAAAAAAAAAC48+za7gEAAAAAAAAAAAAAwN2CABYAAAAAAAAAAAAAOoQAFgAAAAAAAAAAAAA6hAAWAAAAAAAAAAAAADqEABYAAAAAAAAAAAAAOqRLAWxeKdOUaaaUr12VS8k0TZlnsipu6tilW4NzAAAAAAAAAAAAAMA26GIFrCEjmtF8rnppfjGz8UMuZ2WbYyqMzspxHDmOo9nRgsY2HMJ6YW4q13pLAAAAAAAAAAAAAGilqy2Iw/sMZRaD0WhR164asmLGho6Xv5iUG5uSPRQqLwsNJZSIZnRhbmP1tAAAAAAAAAAAAADQKd0NYPsHZKTnK9Wpy64WNKDBcGlBUdkz1RWoxTlb5kyjeta85tOS1R+pWR7S8FknEMp6x2zUojg/Y8qeSck2TZlnfqDvnxlTRlJmnCpYAAAAAAAAAAAAAJvX1QBWew0NBNoQF99akA4Y2lveICTjQLBKtij3itsgZJW0fE0FGQrvrV8VVJxLKrlvym9RPFtXHeumpaOOI+fsP9HTZ6dkSbImHcX7NnepAAAAAAAAAAAAANDdANYPWAvvF1UKV8MPhqq3eDxQJbvsamHJ0uAmwtDQkC3nRCnAva7CUs0GsUE1iHcBAAAAAAAAAAAAYNO6HMBKoQfDcq+4KjYLV3sCVbLXC3KbBaQ9vQrLVeF6ixPmUoH2wxdUiHbkMgAAAAAAAAAAAACgpa4HsOoblLW0oMzFhSbhaqUNcX4x07j9sCQposGYAu2KK/Izpj9vbFHZVzMyRmf9FsQJDXT2agAAAAAAAAAAAACgqe4HsIpoMOYqk24yt6tKbYjHNJZee47XyOGEjPSY7MCcrsqlNJY2lDhcObZbKpPNZZSsbUEMAAAAAAAAAAAAAF2yBQGsFOm3JK0xt2uPoYGopOiAjJ41DtQzLNuZUnh6pNJmeFyacmwN90hSSMNHLCk95q1bHNRULBDI1o/Mq6odN6tDXQAAAAAAAAAAAADYgPtu3ry5ut2DkLw2whfCs7KHQts9FGBH2L1793YPAQAAAAAAAAAAADW2pAK2tbzm04YGHid8BQAAAAAAAAAAALBzbX8Am0vJNMdUGE34bYQBAAAAAAAAAAAAYGe6Y1oQA1gfWhADAAAAAAAAAADceba/AhYAAAAAAAAAAAAA7hIEsAAAAAAAAAAAAADQIQSwAAAAAAAAAAAAANAhBLAAAAAAAAAAAAAA0CEEsAAAAAAAAAAAAADQIQSwAAAAAAAAAAAAANAhBLAAAAAAAAAAAAAA0CEEsAAAAAAAAAAAAADQIQSwAAAAAAAAAAAAANAhBLAAAAAAAAAAAAAA0CEEsAAAAAAAAAAAAADQIQSwAAAAAAAAAAAAANAhBLAAAAAAAAAAAAAA0CEf2+4BAPcq13Xb3tYwjC6OBAAAAAAAAAAAAJ3SMoDNz5gaSzdfb006ivdJyqVkjheUOG9ruEcqztkamQ5ryokrsqGhFZU9M6KkEpo9O6xQs63mbI1MS4nztoy3NntOYGu4rquDBw+2vf3ly5cJYQEAAAAAAAAAAHaANitgrdahZl9cjtOJIZWENHzEUnI8qUxu2At56xTlXnGl2JSGeyQN2XKGOjkGoPPWG75K0sGDBwlhAQAAAAAAAAAAdoA7ew7YvkFZkjKL+cbrl10tLElWP/Wu2Hlu3brV9g0AAAAAAAAAAAA7Q+cC2FxKpmkru9xqG7NyO5NVcc2DRmSNGlJ6Xo0i2PzFpFxZGvSrY4tztkwzVb3tWuf016Vyge2Xs7JNU+ZM8ChFZc8EltUes9V1Aw0QwAIAAAAAAAAAANx9tqwCtjhnyxzPyJp05DiOHGdWCSU10iKEDT0+IEMZXZir3Sqv+bRkjFpNWyO3PKdfYVt4v3Ls4lsLciXp6rXKuIKVtrlUzTEdzY5KyeOphiEx0MzKykrd7cSJEw2XAwAAAAAAAAAAYGdoM4DNaKyq4tOsrxxdU16ZaW+u1spcriEN/3FCxlJSybpwNaBnWEdjknvFrQ5qc/PKyNDA46FNnDOiwZpjXy+4MmKWjKUFuX5VqxfKepW2xfcLUqDqVpJCQ7acVnPkAjVqq1xPnTolSTp16hQVsAAAAAAAAAAAADtUmwGspSmnUvFZusX7Wu8pyQ9LG8zV2mNoICq5hetr7h7pt6RAICoVlX01I8WOarhnc+esPrZXVRvuH1RYrkrDul5wpdigIqpU5I6Zpuy1gmOghV/96lfl2+nTp6vWnT59umo9AAAAAAAAAAAAdoaPbeXJMuOmMo1W7GuxY5+lRHREyYt5DZ+IVFoCH2ldc9rynH2DsjTmh63XVJClo30RKSaNLeYV75Pm05I16Z+rZ1i2Yyh7ZkTJ6RGZ095iY3RW9lCzalyg3q5d3vcfxsfHG66fmJjQ5OTkVg4JAAAAAAAAAAAAm7SFAayhxHm7ecXqmkIyDhjS9LzyJyLSxaTcaEKJlhW47Zxzr8JRKbmYlxVekBsdUEKSwoZ05ZqKuYIysjRVda6Qhs86GvZ/ys+YGpsekS1CWLTv/vvvlyRNTU1t80gAAAAAAAAAAADQKW22IN6kvkFZcrXwVm3L3rxSbbbyLbX+nc95bYKNA4bWjDrbPqcf7l6dV+aKWz5u6PEBGUsLSr6aKbcfbiZyYkqWWrdSBoJ27drV9g0AAAAAAAAAAAA7wxYlOxFZo4bc6RGlcpWl+ZkxZWTpaDtVoz3DOhqTMuNjysjQwOOt9mn/nF7YmlFmSQo/6C/v6VVYrtyl6nlki3O2TNNWdrlyzKbzzQJrIIAFAAAAAAAAAAC4+2xZC+LQkC3nwZTM4Jys0YRmneG1K1kDIv2WlM5IsaNttTJu+5w9hgaikrtkabDcajiiwZiUSQeXececla2R46aSgUNYk47iLVsiAxWhUEjFYhvV3yHaWgMAAAAAAAAAAOwU9928eXN1uwcB3Gtc19XBgwfb3v7y5csyDKNq2e7duzs9LAAAAAAAAAAAAGwSASywTVzXbXvb2vBVIoAFAAAAAAAAAAC4ExHAAjsUASwAAAAAAAAAAMCdZ9d2DwAAAAAAAAAAAAAA7hYEsAAAAAAAAAAAAADQIQSwAAAAAAAAAAAAANAhBLAAAAAAAAAAAAAA0CEEsAAAAAAAAAAAAADQIQSwAAAAAAAAAAAAANAhH+vOYfNKmWPKNFhjTTqK783KPr6ggfO2hq+nZI5LU05cke4MBgAAAAAAAAAAAAC2RJcCWI816Sje12DFcjfPCgAAAAAAAAAAAADbo6sBbFM9w7KdYe/f17dlBAAAAAAAAAAAAADQcdszB+xyVrZpK9uoEnY5K9s0ZZqmzJpt8jOl5abMM1kVt2zAAAAAAAAAAAAAANBaVytgM+Nm1Tywxuis7KHQGnvklTqeVHjSkd0nKZeSeTylXieuSC6lsasJzTrDCskLY5NzRovjAQAAAAAAAAAAAMDW2Z45YJvJzSsTTWi2tE+fpUR0RPO5uCKStJRUJjeseJ8UOeHI7vyQAQAAAAAAAAAAAGDDtmcO2CaK7xekpYxGzGTVcuNAURqKy5mUzEBV7boDXgAAAAAAAAAAAADoojsqgA09GJaiA5o967UZrtMXl+PEJUnFOVsj4ykNOn51LAAAAAAAAAAAAABss13bPYAqfYOylpLK5Pyfl7OyTVOpnBe4mmeyKvqrvLA2rL3bNVYAAAAAAAAAAAAAqHFHVcBKEcXPJ2QfN2X6S4zRWa/NcJ+tqYIZaE9sKHE+3rhSFgAAAAAAAAAAAAC2wX03b95c3e5BAFi/3bt3b/cQAAAAAAAAAAAAUOPOakEMAAAAAAAAAAAAADsYASwAAAAAAAAAAAAAdAgBLAAAAAAAAAAAAAB0CAEsAAAAAAAAAAAAAHQIASwAAAAAAAAAAAAAdAgBLAAAAAAAAAAAAAB0CAEsAAAAAAAAAAAAAHTI/wf6/2wQUTBBwwAAAABJRU5ErkJggg==;" parent="1" vertex="1">
          <mxGeometry x="366.83" y="83.97" width="186.34" height="36.03" as="geometry" />
        </mxCell>
        <mxCell id="PfBwh1k9COEDhM3cSzjw-12" value="dicf-myvault-api.pcf.dell.com" style="fillColor=none;strokeColor=#FF3333;dashed=1;verticalAlign=top;fontStyle=1;fontColor=#67AB9F;" parent="1" vertex="1">
          <mxGeometry x="605" y="40" width="200" height="140" as="geometry" />
        </mxCell>
        <mxCell id="PfBwh1k9COEDhM3cSzjw-13" value="" style="outlineConnect=0;dashed=0;verticalLabelPosition=bottom;verticalAlign=top;align=center;html=1;shape=mxgraph.aws3.android;fillColor=#EE472A;gradientColor=none;fontColor=#67AB9F;strokeColor=#3333FF;" parent="1" vertex="1">
          <mxGeometry x="676.25" y="78.49" width="57.5" height="63.01" as="geometry" />
        </mxCell>
        <mxCell id="In-XIOcq7ashCKyNTo-U-6" value="" style="edgeStyle=orthogonalEdgeStyle;rounded=0;orthogonalLoop=1;jettySize=auto;html=1;fontColor=#000000;" edge="1" parent="1" source="In-XIOcq7ashCKyNTo-U-1">
          <mxGeometry relative="1" as="geometry">
            <mxPoint x="190" y="180" as="targetPoint" />
          </mxGeometry>
        </mxCell>
        <mxCell id="In-XIOcq7ashCKyNTo-U-8" value="" style="edgeStyle=orthogonalEdgeStyle;rounded=0;orthogonalLoop=1;jettySize=auto;html=1;fontSize=10;fontColor=#000000;" edge="1" parent="1" source="In-XIOcq7ashCKyNTo-U-1" target="In-XIOcq7ashCKyNTo-U-7">
          <mxGeometry relative="1" as="geometry" />
        </mxCell>
        <mxCell id="In-XIOcq7ashCKyNTo-U-1" value="&lt;font color=&quot;#000000&quot;&gt;A program which collects existing service accounts from the three core components of PCF then creates a file, with replacing next series of account number (01 or 02)&lt;/font&gt;" style="shape=process;whiteSpace=wrap;html=1;backgroundOutline=1;fontColor=#67AB9F;strokeColor=#000000;" vertex="1" parent="1">
          <mxGeometry x="40" y="270" width="154" height="150" as="geometry" />
        </mxCell>
        <mxCell id="In-XIOcq7ashCKyNTo-U-3" value="&lt;font color=&quot;#000000&quot;&gt;need to reset password on these 3 components&lt;/font&gt;" style="text;html=1;strokeColor=none;fillColor=none;align=center;verticalAlign=middle;whiteSpace=wrap;rounded=0;fontColor=#67AB9F;" vertex="1" parent="1">
          <mxGeometry x="90" y="130" width="200" height="30" as="geometry" />
        </mxCell>
        <mxCell id="In-XIOcq7ashCKyNTo-U-10" value="" style="edgeStyle=orthogonalEdgeStyle;rounded=0;orthogonalLoop=1;jettySize=auto;html=1;fontSize=10;fontColor=#000000;" edge="1" parent="1" source="In-XIOcq7ashCKyNTo-U-7" target="In-XIOcq7ashCKyNTo-U-9">
          <mxGeometry relative="1" as="geometry" />
        </mxCell>
        <mxCell id="In-XIOcq7ashCKyNTo-U-7" value="&lt;font style=&quot;font-size: 10px&quot;&gt;&lt;span style=&quot;color: rgb(23 , 43 , 77) ; font-family: , &amp;#34;blinkmacsystemfont&amp;#34; , &amp;#34;segoe ui&amp;#34; , &amp;#34;roboto&amp;#34; , &amp;#34;oxygen&amp;#34; , &amp;#34;ubuntu&amp;#34; , &amp;#34;fira sans&amp;#34; , &amp;#34;droid sans&amp;#34; , &amp;#34;helvetica neue&amp;#34; , sans-serif ; background-color: rgb(255 , 255 , 255)&quot;&gt;svc_prddap01pcf01&lt;/span&gt;&lt;br style=&quot;color: rgb(23 , 43 , 77) ; font-family: , &amp;#34;blinkmacsystemfont&amp;#34; , &amp;#34;segoe ui&amp;#34; , &amp;#34;roboto&amp;#34; , &amp;#34;oxygen&amp;#34; , &amp;#34;ubuntu&amp;#34; , &amp;#34;fira sans&amp;#34; , &amp;#34;droid sans&amp;#34; , &amp;#34;helvetica neue&amp;#34; , sans-serif&quot;&gt;&lt;span style=&quot;color: rgb(23 , 43 , 77) ; font-family: , &amp;#34;blinkmacsystemfont&amp;#34; , &amp;#34;segoe ui&amp;#34; , &amp;#34;roboto&amp;#34; , &amp;#34;oxygen&amp;#34; , &amp;#34;ubuntu&amp;#34; , &amp;#34;fira sans&amp;#34; , &amp;#34;droid sans&amp;#34; , &amp;#34;helvetica neue&amp;#34; , sans-serif ; background-color: rgb(255 , 255 , 255)&quot;&gt;svc_nparpcf01&lt;/span&gt;&lt;br style=&quot;color: rgb(23 , 43 , 77) ; font-family: , &amp;#34;blinkmacsystemfont&amp;#34; , &amp;#34;segoe ui&amp;#34; , &amp;#34;roboto&amp;#34; , &amp;#34;oxygen&amp;#34; , &amp;#34;ubuntu&amp;#34; , &amp;#34;fira sans&amp;#34; , &amp;#34;droid sans&amp;#34; , &amp;#34;helvetica neue&amp;#34; , sans-serif&quot;&gt;&lt;span style=&quot;color: rgb(23 , 43 , 77) ; font-family: , &amp;#34;blinkmacsystemfont&amp;#34; , &amp;#34;segoe ui&amp;#34; , &amp;#34;roboto&amp;#34; , &amp;#34;oxygen&amp;#34; , &amp;#34;ubuntu&amp;#34; , &amp;#34;fira sans&amp;#34; , &amp;#34;droid sans&amp;#34; , &amp;#34;helvetica neue&amp;#34; , sans-serif ; background-color: rgb(255 , 255 , 255)&quot;&gt;svc_prdata1pcf01&lt;/span&gt;&lt;/font&gt;" style="shape=note;whiteSpace=wrap;html=1;backgroundOutline=1;darkOpacity=0.05;fontColor=#000000;strokeColor=#000000;" vertex="1" parent="1">
          <mxGeometry x="230" y="267" width="110" height="155" as="geometry" />
        </mxCell>
        <mxCell id="In-XIOcq7ashCKyNTo-U-9" value="&lt;font style=&quot;font-size: 10px&quot;&gt;&lt;span style=&quot;color: rgb(23 , 43 , 77) ; font-family: , &amp;#34;blinkmacsystemfont&amp;#34; , &amp;#34;segoe ui&amp;#34; , &amp;#34;roboto&amp;#34; , &amp;#34;oxygen&amp;#34; , &amp;#34;ubuntu&amp;#34; , &amp;#34;fira sans&amp;#34; , &amp;#34;droid sans&amp;#34; , &amp;#34;helvetica neue&amp;#34; , sans-serif ; background-color: rgb(255 , 255 , 255)&quot;&gt;svc_prddap01pcf02&lt;/span&gt;&lt;br style=&quot;color: rgb(23 , 43 , 77) ; font-family: , &amp;#34;blinkmacsystemfont&amp;#34; , &amp;#34;segoe ui&amp;#34; , &amp;#34;roboto&amp;#34; , &amp;#34;oxygen&amp;#34; , &amp;#34;ubuntu&amp;#34; , &amp;#34;fira sans&amp;#34; , &amp;#34;droid sans&amp;#34; , &amp;#34;helvetica neue&amp;#34; , sans-serif&quot;&gt;&lt;span style=&quot;color: rgb(23 , 43 , 77) ; font-family: , &amp;#34;blinkmacsystemfont&amp;#34; , &amp;#34;segoe ui&amp;#34; , &amp;#34;roboto&amp;#34; , &amp;#34;oxygen&amp;#34; , &amp;#34;ubuntu&amp;#34; , &amp;#34;fira sans&amp;#34; , &amp;#34;droid sans&amp;#34; , &amp;#34;helvetica neue&amp;#34; , sans-serif ; background-color: rgb(255 , 255 , 255)&quot;&gt;svc_nparpcf02&lt;/span&gt;&lt;br style=&quot;color: rgb(23 , 43 , 77) ; font-family: , &amp;#34;blinkmacsystemfont&amp;#34; , &amp;#34;segoe ui&amp;#34; , &amp;#34;roboto&amp;#34; , &amp;#34;oxygen&amp;#34; , &amp;#34;ubuntu&amp;#34; , &amp;#34;fira sans&amp;#34; , &amp;#34;droid sans&amp;#34; , &amp;#34;helvetica neue&amp;#34; , sans-serif&quot;&gt;&lt;span style=&quot;color: rgb(23 , 43 , 77) ; font-family: , &amp;#34;blinkmacsystemfont&amp;#34; , &amp;#34;segoe ui&amp;#34; , &amp;#34;roboto&amp;#34; , &amp;#34;oxygen&amp;#34; , &amp;#34;ubuntu&amp;#34; , &amp;#34;fira sans&amp;#34; , &amp;#34;droid sans&amp;#34; , &amp;#34;helvetica neue&amp;#34; , sans-serif ; background-color: rgb(255 , 255 , 255)&quot;&gt;svc_prdata1pcf02&lt;/span&gt;&lt;/font&gt;" style="shape=note;whiteSpace=wrap;html=1;backgroundOutline=1;darkOpacity=0.05;fontColor=#000000;strokeColor=#000000;" vertex="1" parent="1">
          <mxGeometry x="378" y="267" width="111" height="155" as="geometry" />
        </mxCell>
        <mxCell id="In-XIOcq7ashCKyNTo-U-12" value="" style="edgeStyle=orthogonalEdgeStyle;rounded=0;orthogonalLoop=1;jettySize=auto;html=1;fontSize=10;fontColor=#000000;" edge="1" parent="1" source="In-XIOcq7ashCKyNTo-U-11" target="In-XIOcq7ashCKyNTo-U-9">
          <mxGeometry relative="1" as="geometry" />
        </mxCell>
        <mxCell id="In-XIOcq7ashCKyNTo-U-15" style="edgeStyle=orthogonalEdgeStyle;rounded=0;orthogonalLoop=1;jettySize=auto;html=1;entryX=1;entryY=0.457;entryDx=0;entryDy=0;entryPerimeter=0;fontSize=10;fontColor=#000000;" edge="1" parent="1" source="In-XIOcq7ashCKyNTo-U-11" target="PfBwh1k9COEDhM3cSzjw-10">
          <mxGeometry relative="1" as="geometry">
            <Array as="points">
              <mxPoint x="590" y="315" />
              <mxPoint x="590" y="104" />
            </Array>
          </mxGeometry>
        </mxCell>
        <mxCell id="In-XIOcq7ashCKyNTo-U-21" value="bulk reconcile" style="edgeLabel;html=1;align=center;verticalAlign=middle;resizable=0;points=[];fontSize=12;fontColor=#000000;" vertex="1" connectable="0" parent="In-XIOcq7ashCKyNTo-U-15">
          <mxGeometry x="0.102" y="2" relative="1" as="geometry">
            <mxPoint as="offset" />
          </mxGeometry>
        </mxCell>
        <mxCell id="In-XIOcq7ashCKyNTo-U-11" value="&lt;font style=&quot;font-size: 12px&quot;&gt;System Engineer &lt;br&gt;Reconcile Password&lt;br&gt;(Manual Step)&lt;/font&gt;" style="verticalLabelPosition=bottom;html=1;verticalAlign=top;align=center;strokeColor=none;fillColor=#00BEF2;shape=mxgraph.azure.user;fontSize=10;fontColor=#000000;" vertex="1" parent="1">
          <mxGeometry x="578" y="319" width="47.5" height="50" as="geometry" />
        </mxCell>
        <mxCell id="In-XIOcq7ashCKyNTo-U-17" value="Var files" style="text;html=1;strokeColor=none;fillColor=none;align=center;verticalAlign=middle;whiteSpace=wrap;rounded=0;fontSize=12;fontColor=#000000;" vertex="1" parent="1">
          <mxGeometry x="280" y="237" width="170" height="30" as="geometry" />
        </mxCell>
        <mxCell id="In-XIOcq7ashCKyNTo-U-20" style="edgeStyle=orthogonalEdgeStyle;rounded=0;orthogonalLoop=1;jettySize=auto;html=1;fontSize=12;fontColor=#000000;entryX=0.5;entryY=1;entryDx=0;entryDy=0;entryPerimeter=0;" edge="1" parent="1" source="In-XIOcq7ashCKyNTo-U-19" target="In-XIOcq7ashCKyNTo-U-9">
          <mxGeometry relative="1" as="geometry">
            <mxPoint x="680" y="650" as="targetPoint" />
            <Array as="points">
              <mxPoint x="743" y="460" />
              <mxPoint x="434" y="460" />
            </Array>
          </mxGeometry>
        </mxCell>
        <mxCell id="In-XIOcq7ashCKyNTo-U-22" style="edgeStyle=orthogonalEdgeStyle;rounded=0;orthogonalLoop=1;jettySize=auto;html=1;entryX=0.69;entryY=1.014;entryDx=0;entryDy=0;entryPerimeter=0;fontSize=12;fontColor=#000000;" edge="1" parent="1" source="In-XIOcq7ashCKyNTo-U-19" target="PfBwh1k9COEDhM3cSzjw-12">
          <mxGeometry relative="1" as="geometry" />
        </mxCell>
        <mxCell id="In-XIOcq7ashCKyNTo-U-19" value="Retrieve password for a service account using DICF Vault API and save into Credhub" style="shape=process;whiteSpace=wrap;html=1;backgroundOutline=1;fontSize=12;fontColor=#000000;strokeColor=#000000;" vertex="1" parent="1">
          <mxGeometry x="676" y="267" width="134" height="163" as="geometry" />
        </mxCell>
      </root>
    </mxGraphModel>
  </diagram>
</mxfile>
